<mxfile host="app.diagrams.net" modified="2023-12-17T10:35:31.365Z" agent="Mozilla/5.0 (Windows NT 10.0; Win64; x64) AppleWebKit/537.36 (KHTML, like Gecko) Chrome/120.0.0.0 Safari/537.36 Edg/120.0.0.0" etag="-RY6z9iB7Hxl1t6lsV8d" version="22.1.11" type="github">
  <diagram name="第 1 页" id="8D5We_biunjbi0-vX0XW">
    <mxGraphModel dx="946" dy="665" grid="0" gridSize="10" guides="1" tooltips="1" connect="1" arrows="1" fold="1" page="1" pageScale="1" pageWidth="827" pageHeight="1169" math="0" shadow="0">
      <root>
        <mxCell id="0" />
        <mxCell id="1" parent="0" />
        <mxCell id="6UeJwzDiESkf8RxCdp-U-5" style="edgeStyle=orthogonalEdgeStyle;rounded=0;orthogonalLoop=1;jettySize=auto;html=1;entryX=0.491;entryY=0.032;entryDx=0;entryDy=0;entryPerimeter=0;" parent="1" source="PZWJ19g09_BWIWQIjZCs-3" target="PZWJ19g09_BWIWQIjZCs-4" edge="1">
          <mxGeometry relative="1" as="geometry">
            <mxPoint x="334.38" y="147" as="targetPoint" />
          </mxGeometry>
        </mxCell>
        <mxCell id="6UeJwzDiESkf8RxCdp-U-7" value="物料信息" style="edgeLabel;html=1;align=center;verticalAlign=middle;resizable=0;points=[];" parent="6UeJwzDiESkf8RxCdp-U-5" vertex="1" connectable="0">
          <mxGeometry x="-0.1547" relative="1" as="geometry">
            <mxPoint as="offset" />
          </mxGeometry>
        </mxCell>
        <mxCell id="PZWJ19g09_BWIWQIjZCs-3" value="" style="verticalLabelPosition=bottom;sketch=0;aspect=fixed;html=1;verticalAlign=top;strokeColor=none;align=center;outlineConnect=0;shape=mxgraph.citrix.web_server;" parent="1" vertex="1">
          <mxGeometry x="474.38" y="47" width="76.5" height="90" as="geometry" />
        </mxCell>
        <mxCell id="6UeJwzDiESkf8RxCdp-U-9" style="edgeStyle=orthogonalEdgeStyle;rounded=0;orthogonalLoop=1;jettySize=auto;html=1;" parent="1" source="PZWJ19g09_BWIWQIjZCs-4" target="6UeJwzDiESkf8RxCdp-U-3" edge="1">
          <mxGeometry relative="1" as="geometry">
            <Array as="points">
              <mxPoint x="325.38" y="348" />
            </Array>
          </mxGeometry>
        </mxCell>
        <mxCell id="6UeJwzDiESkf8RxCdp-U-11" value="PLC的信息和物料信息" style="edgeLabel;html=1;align=center;verticalAlign=middle;resizable=0;points=[];" parent="6UeJwzDiESkf8RxCdp-U-9" vertex="1" connectable="0">
          <mxGeometry x="0.2241" relative="1" as="geometry">
            <mxPoint as="offset" />
          </mxGeometry>
        </mxCell>
        <mxCell id="6UeJwzDiESkf8RxCdp-U-12" style="edgeStyle=orthogonalEdgeStyle;rounded=0;orthogonalLoop=1;jettySize=auto;html=1;" parent="1" source="PZWJ19g09_BWIWQIjZCs-4" target="PZWJ19g09_BWIWQIjZCs-3" edge="1">
          <mxGeometry relative="1" as="geometry">
            <mxPoint x="464.38" y="157" as="targetPoint" />
          </mxGeometry>
        </mxCell>
        <mxCell id="6UeJwzDiESkf8RxCdp-U-13" value="打包结束标志和产量" style="edgeLabel;html=1;align=center;verticalAlign=middle;resizable=0;points=[];" parent="6UeJwzDiESkf8RxCdp-U-12" vertex="1" connectable="0">
          <mxGeometry x="-0.5162" y="1" relative="1" as="geometry">
            <mxPoint x="26" y="1" as="offset" />
          </mxGeometry>
        </mxCell>
        <mxCell id="6UeJwzDiESkf8RxCdp-U-26" style="edgeStyle=orthogonalEdgeStyle;rounded=0;orthogonalLoop=1;jettySize=auto;html=1;" parent="1" edge="1">
          <mxGeometry relative="1" as="geometry">
            <mxPoint x="294.38" y="208.99999999999994" as="sourcePoint" />
            <mxPoint x="77.38" y="229" as="targetPoint" />
          </mxGeometry>
        </mxCell>
        <mxCell id="6UeJwzDiESkf8RxCdp-U-28" value="物料信息" style="edgeLabel;html=1;align=center;verticalAlign=middle;resizable=0;points=[];" parent="6UeJwzDiESkf8RxCdp-U-26" vertex="1" connectable="0">
          <mxGeometry x="0.1069" y="3" relative="1" as="geometry">
            <mxPoint x="24" y="-1" as="offset" />
          </mxGeometry>
        </mxCell>
        <mxCell id="6UeJwzDiESkf8RxCdp-U-27" style="edgeStyle=orthogonalEdgeStyle;rounded=0;orthogonalLoop=1;jettySize=auto;html=1;exitX=0.011;exitY=0.519;exitDx=0;exitDy=0;exitPerimeter=0;endArrow=none;endFill=0;" parent="1" source="PZWJ19g09_BWIWQIjZCs-4" target="6UeJwzDiESkf8RxCdp-U-4" edge="1">
          <mxGeometry relative="1" as="geometry">
            <Array as="points">
              <mxPoint x="295.38" y="190" />
              <mxPoint x="192.38" y="190" />
            </Array>
          </mxGeometry>
        </mxCell>
        <mxCell id="PZWJ19g09_BWIWQIjZCs-4" value="" style="image;points=[];aspect=fixed;html=1;align=center;shadow=0;dashed=0;image=img/lib/allied_telesis/computer_and_terminals/Personal_Computer_with_Server.svg;" parent="1" vertex="1">
          <mxGeometry x="294.38" y="164.60000000000002" width="62.400000000000006" height="62.400000000000006" as="geometry" />
        </mxCell>
        <mxCell id="6UeJwzDiESkf8RxCdp-U-3" value="" style="verticalLabelPosition=bottom;sketch=0;aspect=fixed;html=1;verticalAlign=top;strokeColor=none;align=center;outlineConnect=0;shape=mxgraph.citrix.web_server;" parent="1" vertex="1">
          <mxGeometry x="474.38" y="297" width="76.5" height="90" as="geometry" />
        </mxCell>
        <mxCell id="6UeJwzDiESkf8RxCdp-U-4" value="" style="verticalLabelPosition=bottom;sketch=0;aspect=fixed;html=1;verticalAlign=top;strokeColor=none;align=center;outlineConnect=0;shape=mxgraph.citrix.web_server;" parent="1" vertex="1">
          <mxGeometry x="154.38" y="47" width="76.5" height="90" as="geometry" />
        </mxCell>
        <mxCell id="6UeJwzDiESkf8RxCdp-U-6" value="LIMS" style="text;html=1;align=center;verticalAlign=middle;resizable=0;points=[];autosize=1;strokeColor=none;fillColor=none;" parent="1" vertex="1">
          <mxGeometry x="464.38" y="137" width="50" height="30" as="geometry" />
        </mxCell>
        <mxCell id="6UeJwzDiESkf8RxCdp-U-10" value="WMS" style="text;html=1;align=center;verticalAlign=middle;resizable=0;points=[];autosize=1;strokeColor=none;fillColor=none;" parent="1" vertex="1">
          <mxGeometry x="474.38" y="387" width="50" height="30" as="geometry" />
        </mxCell>
        <mxCell id="6UeJwzDiESkf8RxCdp-U-15" value="Middle Server" style="text;html=1;align=center;verticalAlign=middle;resizable=0;points=[];autosize=1;strokeColor=none;fillColor=none;" parent="1" vertex="1">
          <mxGeometry x="104.38" y="134.6" width="100" height="30" as="geometry" />
        </mxCell>
        <mxCell id="6UeJwzDiESkf8RxCdp-U-19" value="中控" style="text;html=1;strokeColor=none;fillColor=none;align=center;verticalAlign=middle;whiteSpace=wrap;rounded=0;" parent="1" vertex="1">
          <mxGeometry x="244.38" y="217" width="80" height="30" as="geometry" />
        </mxCell>
        <mxCell id="6UeJwzDiESkf8RxCdp-U-21" style="edgeStyle=orthogonalEdgeStyle;rounded=0;orthogonalLoop=1;jettySize=auto;html=1;entryX=0.75;entryY=0;entryDx=0;entryDy=0;exitX=0.5;exitY=1;exitDx=0;exitDy=0;" parent="1" source="6UeJwzDiESkf8RxCdp-U-20" target="6UeJwzDiESkf8RxCdp-U-19" edge="1">
          <mxGeometry relative="1" as="geometry">
            <mxPoint x="94.38" y="307" as="sourcePoint" />
            <Array as="points">
              <mxPoint x="77.38" y="347" />
              <mxPoint x="304.38" y="347" />
            </Array>
          </mxGeometry>
        </mxCell>
        <mxCell id="6UeJwzDiESkf8RxCdp-U-22" value="PLC数据" style="edgeLabel;html=1;align=center;verticalAlign=middle;resizable=0;points=[];" parent="6UeJwzDiESkf8RxCdp-U-21" vertex="1" connectable="0">
          <mxGeometry x="-0.2608" y="-2" relative="1" as="geometry">
            <mxPoint as="offset" />
          </mxGeometry>
        </mxCell>
        <mxCell id="6UeJwzDiESkf8RxCdp-U-20" value="PLC" style="shape=image;imageAspect=0;aspect=fixed;verticalLabelPosition=bottom;verticalAlign=top;image=data:image/jpeg,/9j/4AAQSkZJRgABAQEAYABgAAD/2wBDAAMCAgMCAgMDAwMEAwMEBQgFBQQEBQoHBwYIDAoMDAsKCwsNDhIQDQ4RDgsLEBYQERMUFRUVDA8XGBYUGBIUFRT/2wBDAQMEBAUEBQkFBQkUDQsNFBQUFBQUFBQUFBQUFBQUFBQUFBQUFBQUFBQUFBQUFBQUFBQUFBQUFBQUFBQUFBQUFBT/wAARCAFnAgUDASIAAhEBAxEB/8QAHgAAAQMFAQEAAAAAAAAAAAAAAAYHCAECBAUJAwr/xABiEAABAwMCAwQGBAcHDgoKAgMBAgMEAAURBiEHEjEIE0FRFCJhcYGRCRUyoSNCcoKxwdEWJDNSYpKyFyU0NUNTc4OToqOz4fAYJkRjdIS0wsPSJyhFRlRkZaTE8XXTGZTi/8QAGwEBAAMBAQEBAAAAAAAAAAAAAAECAwQFBgf/xAAwEQACAgEDAwMDAwQCAwAAAAAAAQIRAxIhMQQTQSIyUQVCYRQVcSMzUpGB8KHB0f/aAAwDAQACEQMRAD8A6o5pMcTLzM09w31TdID/AKNNhWyTIYf5Avu1paUpKuVQIOCAcEYpT+dJviNcWbRw91PPkNqdjxrbJecbQnKlJS2okAeOQKxyylHHJwVunX8mmOcMeSM8ntTt38eSG/BHtO8QdX8RdBWq6ar+sIVzmLalM/VUdnvUiMFDK0p29bJ9XB/NIFTtqHXCnjFY9Raq0HFg2CVHcnSinvpEMpDWGObPNnHs+R8RUxq8L6H1XW9X07n12F4pXwz2Pq/1T6V9WzrN9JUVBKnp4u/wFFFFfRnhhRRRQBRRRQBRRRQBRRRQBRRRQBRRRQBRRRQBRRRQBRRRQBRRRQBRRRQBRRRQBRRRQBRRRQBRRRQBRRRQBRRRQBRRRQBRRRQBRRRQBXm66llClrOEpGSetelJHivanb7w51Bb2XQy7JiqbS4Tjlz41llyRw45ZJcJWa4oLJkjBuraVm2j6ogSprMVt1RdeKko9QgHAyfdW2B8PvqLnZm4XS+H+sHnJb8eQFwWm0OMtISpSgFAqVhRJyMHOOtShbGCfbXH0HXYfqPTrqcDuL4O/wCpdHDoeoeHHPWl5PSiiivRPLCiiigCiiigCiiigCiiigCiiigCiiigCiiigLc9aT2vLWxfNE362y3XGo82E9GccY2WlK0FJKc+O9KKtNq5SUaYuClK5Uhk7+VQVlBTThLhkbtCdnWwaGuemLnFvV5mKtMxLjTEl1stuKUlLeVJCR4HO3s8ABUqh76Y2PqSDIYjlm7Rlp52+7aSPWUoKR40+CVbDPWpV0jn6foun6GPb6aCivwX0UUUOoKKKKAKpVaoNj7aArVM0fGjFRYDNGaMVbn2ilguBqtW59tVoCtFFFSAooooAooqlAGaM1TzqlAXZoq2q5xQguoqmaAagkrRVKrUgKKKKAKKKpmgK0VTO1VqAFFUoFAVoqmaKkFaKKKAKKKKAKKKKAKSXFSBcbpw9v8AFtCHl3J2KpMdLDgbcK/DlV4H20rax5m0Vz3VDSkqaKTjri43VkW+zVpXXdi4oXJ7V7F4Qyu1sNNOXOay+FLSTkICBkEDqT4eJNSobGM5pF22QteukNlkpCWVELJG+3lS2T76pDDiwxUMMVFfCVHN0nT/AKXEsTm5V5btl1FFFaHYFFFFAFFFFAFFFFAFFFFAFFFFAFFFFAFFFFAW9K8JcRmew5HkNh1pYwpKhsRXueoqvjQCEtWhmrfqLmkEvx+VxSGVAFsnnBScY2KQBS6G2w8K16Xg9dWiNsIcTj3KArY+dRwLsKt7xI2Khn31qtU3F+z6Yu86MEqkRYbr7YWNipKCRn5Vz+Tx2ly20ybhZ412nPJS69KekvIWpw7qyEqx5DA8K6MWLub2UlKjowCFdCD7jRkDqRUA7L2odRWSKqNa4zECNzFfo6X3HAknrjmyRmvbVHad1hrDTVysSpgtSJzCo5mQVlEloHqpC/xVe2rvp5JjUTzL7aUlRcSEgZJ5tqROoeNmgtKyhGu+rLVBeIyEvSkp288k4rn/ABp09oylo1Tf3FvNpbHpV0W8lvfdSUn8Y+dNjrfgjZtbSHHZ17uanlklTi1BzOeowrp57VbsJeSut+DpQ92uODUZxSHOI1hQpJwcyx7q8ldsLgqkpB4k2DKs4/fY8K5U/wDA10nIVzG+3HJ8O4arbWfsTaFkSu6lX+5shxPKhaI7R9fI2PkOu9UeJfBZJ/J0/b7YnBVzm5eJNiOOv75/2Vktdq/g+6wp5PEOxFsEJJ9LT1OcbdfCudLH0eOiHVJKdT3hpOBjEdlQzjc7+B3Nb22/Ru6ElOgnV97bBwAExI59+5qVhiV1fk6Bw+07wpngmNruzO4ONpSf10tNN63sWrUFVpujEzYKwg7lPgQD1HtG1cWe052NdU8GtW2teiFXnUOm5MYL9KbigrZdBPOhYQDuQMjw5T501lr1zxr0qx6JbNVXmzxNnG2u+Ug8p+zjIzg+GNqlYYvYamuT6F6opYbSVKUEpG5JOwribofibrqTwu1rK1DxTvatUptil2CJDvLxfXKSd0KbCcEkZI86n5ZdR6ivPDXS9scuyn4Igw3nuU8zklXdIUpLjmcnKyc/Kn6d/JOslkiWw4oJS82pR6ALBJr1FRUh3P6tlsSosBtqQwoLQ6XXCeYdD1+6szVPHjWVhtnp0dEV9psgOhaD6g/j58umfLNVlgr2shTsk73iR1UkfGsaZc4tvb55EhDQPTJ3V7gNyfYK586n1tcNZSnpE283+A8673qza709GPQ+qMA+r/J9graua/uNzsbVnj3Sbb2ktdyqWxJV6a8n/nHjuo79djU9ja7Lan4JT3ztNcN9NuyEXLUkWIqPkOJdcSlScZz6pPN4HwpJHt58CkrKVa+ghQ/kr/ZUQrr2L9B6pQu5z7rd3n3jzLcceC1KJ3+0d6T6uwpw6Usk3C6kDqO8T+yq6ca5RKjJq7J2xu2vwRlgd3xCtSifAuEH9FZf/DC4OdP3d2s56fhagVD7DfDBqQkPP3RxG+cvAZ2OOg88fopTtdizhNFUVNWq4ONHdBF2cIx+Vjep0434f+w1NeSckHtK8NLmvkiast8hWAoJbeSSc9Mb7n2daVEHiRYJstmMJao7r/8ABektKaDnuKgAa5+Mdk3hnanUPRbVcm3knIULs71z16UxPaG4qca9BayuNpha91EdNggxY/pGW2EcoDSR6pIG2M5zmrvFja9NmalK9zs+lxGMcyfnVyVBQ2IPuNcC7D2mOMiLlHRduI16aih1HfJNxUFAcwCvDIIGanBwP45w7zxoljTWo7nfrKzZO99GuF5elNNyvSEYUkqAPNycwxvtk1R4VWzL6joqD7RViXm1KKQ4kkdQDuKYRvjTdyhQMRsk+IfXSLubLepn0+lXjUdrPMVF62311klRP43qnI3+FZqF8sa0SvcdSyhS3FpQhIyVKOABWgla9ssLnMiWphpJwX1tKDf87GKYnT10e0Q26yzJuF6Qs8xXfrguYpJwdwTjatBxT1ZH4k2s2u/wXXIoGAiHcHYw+Sa1jhTe72KOb8If9fGzQjOefVNuSR1HfCrDx04fp3Vq61pGM5MgCoCv9nnhjMdWo2e67+V+kfsqiOyzwtkj1rNdsHw+v5B+7FTLHjT2ZZa2ifLXHbh46rCdZWbPTeYgfrrLTxl0ArZOt9PKJ8E3Rgn+lUC4nY14TXJDbbcK7MSVZBR9aOrHzI8qyI3Ya4Xstkswbglzn/hRMO3s6dfbVFjiw3JcnQax6ssup0KXaLpEuTaTgrivBac+IyNq3ArkZxs0hrPgLeY39Sq6361x345bK41wdBK856AY3x1pGtdprj5AvjDb+srgq34aUpDkp3vVpwAvOEHBzzVLwPwXi7VnaWjPtqFXC3i7A1hrXSrFjvuqLjIZUp24G5mQI5b7lQRnmSEnLvL/APqpUQ5c+4qyZq2fD1QKpLG0LFaDQK0fd3K3qS8h5dwYI/CNKACx7UefurawpTcxgOtqCkn4EHyI8DWTRJkUVQVWoAVjzIrc1h1h0EtuoKFgHGUnqKyKtPSgEZo7SzdpvM50NIQiMSyxyE4AO52PwpaJrUWZZVc7uk9EvJx/NFbipb3AUUUVACiiigCiiigCiiigCiiigCiiigCiiigCiiigEbq/iPC0ZrDS9ouPKzHvfpDSJKlYCHkFrkSfYrvCM+B5fOlj4UzvaC0VbNYP6d+sA+VRhJ7oMucn2u6znb+SKcDQE4z9E2J5UhMlxUNnndCwrKuQZyR4+dXa9KZHkzIp/rmn/Hf0xW1861MU5uiR/hv6de97urdhss+5PJK2ojC31JSQCQkE4ydvCqvmh4IkdrvtGKEiZoDTr60BBLV2mIyPW/vCT/SPw86icy+uSsIbBW4egBHl8ulKTibKjax17qPUgvllgs3OYuQiPKubfeNhWMBQGwI9lIRxxgOrbaucGWUZ5+4kBaQAMlWfIAZzXr44RhFGDe5uG5vInZfXcGqC49yrKlAYz4+2rrRpq/3mGh61w3JzD4BHcFB509QdzkA5BB8avn8PNXob/C2KQ2geJ5Bjr/KqdSXArYymb1tnn6irkXQl3CTnPtpOLt11gp7qRELHJnOSnP6ayovpMpaeSGE8pJK2W1ZVsBgnfP2fmTUXZCtCuiyVH8YqJ6AVsmZecBXhuK06WJ630LatrzRCE8qWY6wMhIGQPM4yfMkmshDctlGXIzzYHiUHr8qwbN4sePQWrkX0phSMKnIBKFnP4ZIx1x0V7PHr5051jTzPJynlOegqJ9uvUyDdWFQgpM1LgDQSNyo7AffjHSpUK11LtzzjbFptgCMbqjnm/pedQpGco07Ho0Ux3Cu85MgoKd/b5/ordydK2adhb9htrykpCE95EbUUpHQbp6D5UyNs4uapbIQxDgNp80RT/wCati5xj1gynKo0XptiMrf76ylGTdojUhxrhpW2QmlriWC1x3kpPI63CaCknpkEJ2PWkBJ0sIiSyywhhsbJbaQEpT7ABsPPFaSXxu1s4hzkhR1gbbQ1H9daV/izryUVf1saCcdfq9W1awuPJnKS4N1Ksa21EcoArVuW/uuYcnMCCkgp9VQOQdvEeGK1kjWWs5uOaGts46ohqH6q1Eq/atUDky2x4Yin/wAtb7Ger8Df8StDuaYWu521pZtbivXZzzGMry8+TyPh08jSBTdjg74Vsc9CKdjU911PJ09dmX5MvunYriFJWzhJSQc59X76ZBmA6pgF2dEQfFbj+AANtyfCqS4N4yt7i/07rudAwymRzsnYoXuPh5UomtYsPJJOUHyAyKaVD8dKhHGobMVkK5UCcjc8uev5vzr1gz5D8lGbhb3jhIAakpO3l765dJtaHcdu3dOLbUrlWnIKT4VkWzWX1dIDLwL0NRypKeraj+On2+Y8ffSLhpWpoBLzRwNglxNe5hSHXBypK1Y25SCajdE0mO/lp5pt5pxL7K08zbqDlKh50nb9oy2ahf72bFQ6cAHmG2Acj76zOGlnv8qyyuSO8GxIBQpaPVCQnBG+2M+Hxp17dYFsRkpdipUr+MUgira2uClUMKOEel3XCtVpiKWolRUWUHJJ33I3pT2HS9r080UwoEaMc5K2mUJPTGcgeWfnTovw+5PKmKyR5lCdq1twuluta0olyIMVa0lSUvuNoKwDvjJ8yKa2RQl0kDpt7KvRICSckeWD4it9arxbJylFiTAle1haHAPkTityERXBshj+amsnIKIlmZgcaU2tQzjCFHGx8ifL2+FIbVD62HnUltfPnHJy5IJPlTxqhMkHlSxnwGB+ymx4uzrbpCUmbdpaoDUwJbYfShSgVJSkkDl322PyrSM72Ica3EO3NyspHMV9cAbit7ClILRPP03x4n3Uj7JebLf5kdUC/Fa3y5ypTDfClhIBWc48OYA+80pksR2P+WKz7Yzg/VVnEtaN0xcQPs5B6ZBwR8aVun7+1OKIjqlIknPKtZAS55DPgQPnSCjKjhJPpJPsDSv2VubVBcmvtmIzJkgOJ5ywwSU7/wC/WqJNEvTJDhyLIzdWUCRFDwByCtGT+ismFoyCjcW9CSo5OGuppXsodjIbQ4pbIAx+EBT8PfWYzJSEg+lAAe+p78l4LRxJ+TCs9qEdsIQ0tPsIOMUsbO2UY9U0l7rrS1aVhIl3O4FthTyGUqDalHnUrlAx+voPGs+zcXNLThHDVwU4HyEtnuj62dhvVHlbXBLxqPkcBndA2I9hrVTYD0N9ybAOXFes8wo+q6PZ5H21sGZzDoylwGrZMxlgBxawAfV2GSfdWKuwXW2ai4wmpLaVIS4M8quorKrQaSW8zGkQH0pCoaw2FoJIUCAodffW9BqHswXVSjIo8RUA01k/trev8On+iK3VaSx73W9/4dP9EVu6l8gKKKKAKKKKAKKKKAKKKKAKKKKAKKKKAKKKKAKKKKAT2qrLGu64hfKgWuflKTjGeX9lNRb+MvDjgrKuump9yRanmJXMIjMZagkKQkg+qPHr8adjVM9UH0blwCrm3KOby9vtpldWcK4GsNRy7rIkxuaSU87blpbczgAfaJyelbwSa3Ku9qFXc+OmmdO2i26nfVKcs9wLgYeQyQd1ZSSDuAoAkUldX9qnRF/0lerdFXNU/KhusN/gNuZSSB09prZXjhzZ9RaPZ03cGW5VtY5Sy2YpQGyAQCADttnpWgtnZ50fbkAMxZLRH40d51o/cutoxx8yRV6nwRONrXI5StguDkSCVN7Hb2ioz8RxqOPrLUzMSPLXb0vuR2iiPzIIKMAA49tdUp/Z30bckKEtF7fBH2V3Jah8lZqPNy07ZrPx6vHD6yzrrbo8aOw8EfWEcPgLbKiA2Wt0HpnOcVt3NbpFIxp+oSWlNE22Jp60w5FuiLdYhMNr5mUk5Dac+HWltpXhDoi+yH0XmFEjtoTlBHKgqOelL5zhytptKI85xhKQAB3LWcD3AViK4cu82V3iT7QhkH9BprjVF63EvcuAWgodnMyHaUqeCwktHICRnY5Ct9sdK8bfw+tERKUR4io6f+akOJ/71LeLoHuc4mvuf4Rg4/TWZ+5Cegfgp0Ns+GWTn5ZoskeCriyFd74mXGy8Tn7I/JuMdEa5d2lSb1JHK13nqqxsMYwcZ9lPvo7h+u/aQslwuN4vL8mVDakOc04kFS0BSjykHG9KDUPAy0SlXy5X6zWq4vyVNralsFSHOcHAUrb1fVJ2TkZ6joaXmm9BylWG3G3pCYYZShlCncciEjABBBO2MVSNPcu1SSQntA8MLYnUMJMrvpzRfaSW5ZSsEFYyCOXJyNqlPL0gyGEtRUNxg2QElDKObl6YyUk/PemjsOkLjbLlGkmVFa7p1DhC+Y55SCOg9lOvG1U8oq7+bCUCeiEOA/ems5XexGqlTPM6TlhJCZjjftQ22P8Au14nRMtfrKus3zwFIH6EVtf3VRehkoH5Kl/rRVrmqYuDiU6fYD+1NV9TI1IiLxz13bNG8QZ9pvs7WylcqFtuaeuiI6QnHRSSNz7aT/DbV2lNX8S9MWuBeOKaZEme22gXK8JXFUd9nAhzPL8D7qknqfhvw/1leHbrftPC7XBZGHnnXQeUbDZKkir7Fw94faXuMKfadMJt06G4pyO+ylZUlR6kczuD8c48KvTKVG7YrWOGbLIwJt0V+VcX/wDz1ltcP2UEgyJ6h/KuD/8A56qjWhJx3r5/6sj/AM9Vc1e/zeo+4keIMZB/79V9Ra0uDMgaSYthWWy6ebBPeyHHNx+UTioda9gQr9ddUW2NyOOvOSk922MFI9bm29g+4VLZzWMgpISpSj0yW0g4+dNwvREJU+XLNujOLkrcWsFDgJ585/HxnfqAN9xg1pByRVyjsc3NM8P9SR9RW2Q/pm5CB36WHH1RVciO850JCjjbI5jv4A1LWHpu2NR2kORYhUlIB520k5+VPMjhrp8xvR3bOpxoKQspEt3OU5xglSiPtHx3+FCeG+km1ZFgXnzMzP6Umrxk1yg5RfA2MKw2otnEaJn/AASP2VnxdO29MptbcZgOJUCkpQM05jOlNPxdmbY63jwTKa//AKqq5pm2OoKR6S1/1tH6mxU6r4RXUvkWvDO2Nq0YyFNJWC89tjbHNvt7a2p03F3yg4OwBUcUirRJesMFMOG5zNJUpQ758qVknfpgVlHVN1Qch2Pgb4POf11m4supoU50pb1H1ojSvygDTUcWOH+mHNWWidP03bLq8xFdEYS4iX0NLKgSrkOxyBg7UsxrC5Y39FP5i/21ivX2RJd5nURlHlKAeQ7g9R1quhjuITOkEWyJdIcO3abs9vQ+8lp76tgNxU4yB6yUgZOPOnfasUFAwIrA/MFIBMxIPN+ASoeKUH9tX/XD+2JeB7E1Cg0NY4bNojIIKWWwQc7JAqLn0gPDO98RtMaSYsUdD0qLLeUouPBACFJSD19oFO/9byvCcofD/bXo1fpzPMUXF0A9dutWponX8kQOyFwV1pw61fd5GrreiFGXDCoq0S0Pd4VkfxSfAZwalmxEaWMc3NjbJ8a2LWoJrTilpmDvFYyvukZ2z448KDeJDoPO8g5+1+CQM/dWqm0qZR78FrVuZUg/Z+OK2Nrhx46/toQOcEgED41rUylYJDwGPAIT+yhLvUl0E/kj9lHKwhePzIb2eWQhe/grrViQwTkKBz5CkUl84yHyPzRV6ZRQdpSwfMYFYOJopbUenFe1G76Odjxoi5ziXULMdLZUVJB3293lTWcMrrrBvUEKLeeGi7bbkPobRLbfQruW+YBK1JUBjlABIST44p025hUCFT3cHqM9a9W5KEj+zXhjfAV/sqPwappLcWyNRWtpakqlpBBwSc15zr7Dk92lElHLnJPN7aSguiE4Ppkk+4n9lXpuTSju9KWT/JP7Krpp2VuzYL1U/ZrvcCwwzJQ+tC8LcKSPUAx0PlWQ1ri9u7tWNlY8xK//AOawWnoyyMplq9yF/srKQlgpBEaYr3Nu0uLfA0szG9W6gOebTZIH8SQD+qvVnU98fWEHTjqASAVKdGAM7npWIiQwwQfQ5gP8pK/1mvdufDccKlsupPtd5R8uaqvT8F1Fl8eXPs16uLirZJlRpJQtK2sEhQGDsa2TepVrGTa5yPDdsftrHbkQVjl5mxt0MlOf6VWPXG1xwS49FbGPx5aMf0qzuJOlmeNQFW4t0v4oH7axxrW3NzFRHw9GkJbDpbcbOeUkgdPdWrY1DaJbq2oi4clxI5lJbmNqOPPHNSZujyZGrJK0IQ2PRGxyoWFD7S/EVKimQ1Q4I1dbNx36tv8Am1fso/dda/7+r/Jq/ZSBT1Pvq6q0VsXn7rrX/f1f5NX7KqNWWw/3ZR/xav2UgqqnrUULF7+6y2/35X+TV+yqjVVt/vyv8mf2Ug6vpQsXP7qrd/flf5NX7KP3VW7+/K/yav2Uhk9aupQsXA1Pbv78r+Yf2Ufunt/99V/MNIodKKULFqNTW/8Avqv5hq790tv/AL6r+Yr9lIurh0pQscCLJbmMJeaJUhWcHGPHH6qKwtP/ANp4/wCd/SNFQSaDiHeodnTAVMmR4aV95hUh0IBxy+fvpIW/Ultu5dTAusKYWsFwMvBRQDnBIHTOCPnW04znaz/47b+ZSS0YsE3BJSNyz1GPxlVpGfEaLadrNnK1dbIL7rD92hofQTztB4FacEjcA561hP8AEuwwkKW7cCpKRklDK1fqrml9J5xH1TpHjXYmNP6lutkYfta1utW6Y4wlxXpTw5lBKgCcADPlimL7L3EvWWqeNlhg3jVl7ucNalqWxLuLrjaiE7cyVKIrXUErdHbl+9rU2socUghIJUtk7AjPTbwqJcq3uPdu/U94XDkPOtWi3ITNYUjuQFRjhKm8FWSPbUhNQXR1pLoSojneSnA/ITXMftYaxvtk7Z61Wy8z7Yt5m2oX6FJW0VJDR29UioeTRuzRYdTR0xfmvKbKuVaUjxU0R+nFap66spPKqQ2FeSgAf01zxsfGLXEaHCe/dfenlrmcp9JnOOgp5zthRIx7MU2V47cfGyz3ifFg61LLDTy0oSu3RVkJBOPWU2T8zVO7FF308kdWm3XFnmQpvlPjk/qFbZiQWgMraXt05iP1Vys0H2+OMy7mlFzv8W9MHALMq3spByf+bSk/fT0at7cusdLwA5E09plx5T6mgt6K6r1QOpw4N8mo7sXuR2Zk19ZzFOablDuxjKNysED1h4ZpUaDc5dI289zlRScq5c/jHG/uxUEuzp2vNZcf+MkbRWpbTY41nebUpz6taead9VPMMKLxA3HlXQHT9ohwdPw24yHENIjtrSnvVHCjkqOSfE+FdEMkXGjnyY5R5MpSnDnEfP5oqwIdO/cY94qAH0h/GbWvDXjBZ7TpjVFzskJ2zokOMw5a2wXe/dHNsRuQAKiU92leKz6sniRqoZPRu9SEj7l1xz6yMHpps1h0k8iu6O2WH855Uge+re8c9bLjacea64ludofie8hQc4iaodz+Ku8yD+lZrBf4z60l59K1ZeH8/wB9nOKH3qrP9wgvtZf9BN+UdvxMc3y+2P8AGj9tU791fR9v+eD+uuF7uurpMIMq6vvAdS68o+PtNbl+7l2zOFLhUQkevzZzv76j9wviJP7e/MjtuSshXO8n51hSbhBhpKpF1jMDzcVj9JrinfdVvW5kNsLPfODf1vsjp50lm71KK+YLcKUqGSCf01V/UfCiar6Y39523mcRdI23mErWNnYI6hyWhJHvyRWrc42cOGlYc4j6ZSf5V1jpP3rrjrebo67e30d6cEpHXO3LWQ1ZlrA5nTk755f9lZ/uE72gSvpa8yOwDPGrhzLcU2xxBsElwHHIxdGFqzgnoF+W9bG1cQdL32auFbr03OlJG7UVQWpOwOdifAg1yX4Lxe/1pIbVhWHXEYI8mF1NTs2NCPxVuSfs8xCceH9jtn9ddOLrJZJKLRhl6HtxcrJYB5g7D0hJ9qcVcWUHPrOfE/7KtByaurq7kmcGheSxbKQNgpf5+P1VYE7cvoyyPPvRWSnpRR5GT218HihhtwHLBR7SvP6DVfREAnCEj4q/bXunpVajuMhQTNFqi8M6S09Nuz8UyGoyeYtsn1leGBk/pNY8PUD11sNsukOAypufHbkobfWUlKVpCgDgHzrw4rBJ4e3cLxgtgb+O+wqzSjYb0Ppdo/i2xjI9yE1OqRpoVWey7zfUHDVntC/8JNdH/hGrmrtqJQPNZLTj2XFz9bFe/MEE+2shDh7o4xtUa2ydCRjIud7WnAtduaP8YS1L/wDCFaXiXra8cPOFGpdVBuC/JtjAeRHU2ShXrpTgqyPPNKFtRz5033aleLXZj4iKz9mAj/Xtj9dVnklGDd+DXFCMskU15ItSfpFNfpUrubJp9P5cd1X6HRWF/wD5GuJwzi06WwPOC/n/AF9RdfXuoVh4yCf118j+u6h29Z9kvp/Tx+0lYfpGeJ5SQLZpdOfFMF7/APuNYcj6QXipIyUfU0Y/81CVt/OWai/kggDoa9AcgjPSn63O+Zsn9D0/+CJFPdubjE+rLepW4wwc91AYIH85Bq9PbR41rjIWnXTqSsOYAt8TwSCOjVR4YPXfNb2E330KKnOeZL4/zBXT0mfLkyVKTo5Os6bDjgnGKHx1B2suL8cQydayuV1KirljspzgjyRSck9pXijNI59b3dJPUIkFH6MUneJkJMFuz8o3WhefmKSAXlA26fori6jNlWRxUmdvTdPi7ak4ocE8fOJTilZ1/qLP8m6PJx8lV5K448SFKIVxB1Rv/wDWpP8A56b9JUXCQcZNXkqyRnNcjyZPMn/s7Vgx+Ir/AELGRxa1vOChJ1nfpKTth26PK/SutHM1LdbgSZVylSCfFx5Ss/M1q1BWP2Gg8wwNvjVNcn5NFigvtR7NyFIeLyTyOgFPeA4UAeoz5Hxr2ZuclGQ3IdQPHlWRn76wV8wBz91ejSDyFW2fM1GqXhjRD4J1/R8IK5cmS4orW7BlpK1ZJViVGFS+JzqF/wAvRk/6xyok9gNPdQo5HUwJpJ8/33GFS1QQq+PH/wCXSP8APXX3vT32Yt/CPz7qa7sl+WZw8KrVqauqxyBVU9apVU9aAuq+rKvoAT1q6rU9auoC8dKKB0ooC+rh0q2rh0oBZ6f/ALTx/wA7+kaKNP8A9p4/539I0VQsuBCcZ8k2b/Hf+HSO0uvkdlYOCe7Sr4E/7aWPGlYR9T5yf4bp+ZSE0u6PS5H+L3z7VVEfcdC9py++lVV3nG7Tav8A6Q5/2t+mR7IJCeP2nirGMuf0aeP6UeQXuN2n/IWlz/tj9M32P0BXH/TYJBGXDj801v5KY/cdltTOEJGP/ixn+amuYfa+UFdtdnyDMDb/ABRrppqRaksoPQemgZ/NTXMbtd7dthodMNQv9UazmdMdpJs18dzktlu5c59IK/8AOVUbtRvc9/uS+uX1HHxNSHQSm1W71wDzLP8ASpjpGjZF0lvyG58BtLiirDr+FfLBrObWx0uMnsjw0U8frVoZGVOJwPzqd3iK/mEyD4yXT577Cmn03aHIGsI8RT7Tim3kAqaJUhW/gcA/7mnR1zH72JGJXjD722Pb/sqiaqglKtx0OwS2D2i7e+R63dq3+GMffXWqxOFenIZzkmO0D/Nrk92FGPROPUA8x2bKtx/LSPP211X045/xageOY7R/zf8AbXVh3jscHUXa/g5jfSlyw32hrS2Duixtj/Tun9dQxM0JWRk/Oul/bY0TYdV8Yu/uMBmVKahNtJU4tAPLzKUBhQz4n51HV7g3YieZqzxkg+AU0f8AuGuOWFyk3R04sqUEiLYnI3JCvPmz/sqouCVHIT7yDtUmFcMbPDUc2plJ8xv/AEW62lu0La0DIhxWxjO7bn/lFUeB/BqsyIjXV5UpLLaU8w39UYGT50srd3TttmqhQXI7TiUIQ3spWwGScDck5Pup3mtISpeunHrWludFTiOpMPu0hG+Sjldyoq65I8NhinEvdsttjcgNmyTIiZTvIHnY5eT4kbJd2+NRKEkkqJhJXZFy+2+5P3FxTMKQ6nlTuhlR+8Ctg7a5jdkisiFIHrIUoBpWeu+dql7D09aVJUtmK2EKUPwb0YEo+SjnPX7vbVj2nrekZTbY6h4FMUb/AOjNc+ijqTsh+7bbiu7uOphSCOYblsjOB5kUokIu/VFteI/lOoTipPxbQ2hYLMMtnw7uKg4+bFbVxl2BGU9ImSI7aASpamGEJSOpOSB9+K5ZKSdo6YqLq2Rv4Nsy7NrVD0yMWvSJK+VsKSo+s0pIyRn+N4+331MTglfYth4tXV+X3yYzHIVvNRlupSVR2wM8gOOlNBN1i1K1A3as+nRX47zneF1KmxyoCuVQSSDurffAwau0HfmG13q4TrkiBHRNW29NclON5abbZSjmUlQ39YkhWQCTiumDeJqdHPOMcl40+Scb3GXSLKuUz3yfZCfH6UCs+FxMslxWRGW86PAlKUZ93MRUS4+t9Etx0Pv6ntrrbiQpKl35QURnxScke41Y9xj4WRk8r+obM0fFSn1vYH+QNF1s/wDAr+24a3kS+ma7jwIynV2+UsDwbfjZV8O+rQjjrp4yEsrYmNPEEhDwbyQOv2Fq6eVRXXxB4X3JSVR9XWl1ajkBEdP/AHmxWtl8SdC2K7sLd1Ihgcp7v0a1tOhZzgeslWQfDGwNdUOok1elHNLo8cZVZMlPF7TRa5/ri2NJ5eb8NL5Tjz2SfCtQxx9sEx5TcR6HJIQhxITKIKkKzyqAU2Njg/KmH1zrWzaA0NJul61A5Z7cEo7l9mO0X1FTZUENtnZa/Yenicb01I7Z/DZtousL1DcHCAkKeUW9htjGTiqOed7xRZYOlT9TJXcQOLsW+6akWlNvU25JUEhwO8yU4Oc55R1xTi2fDOmrCjyhND5JqDeiu0nZ+MOqI1lttonQlIQ48X5T6V5AQduUJz99TpaQGLTbUnYJjoG/uNdmDW4XPk4upjjjJRxcApzmUfKsmMvmbVvnBrXuuhJOK9o7wS0rNaHKZCXCNumN/fTd9qH99dmTiKgqIBgtAq8v3w3S7S4CcnPSm97TcsRuzLxEeKgAiG10/wAO3Sk7T+GTBtSTXycynLK2kq/DnrXibGyDvJHvP/7rJN3Q8pRwrk5inISOoGc09OleyHxW1Y8QjT6bQ0uMiS07c5LaEvIV9nl5So9MHcDrXn/oME1cUe6+tzQ9zGN+owEnDrSttiXMV6x7AorwtbKk53wvNPzcuxPxehNqWixsTyEkhEWSgqOD09Yjc+FJif2V+L8EkO6GkoCTv6rav6Kj91ZP6biJj9SmNcLFK5iEMc/ly9DW2s8ZSHITCxg8z4IyNvVFbSfwZ4g2laRJ0XcwcfiQ38fzkpwPnWmmaV1RbFd7I03PiqSSA44HEEHG/U+ypxdFHBLUmVy9a80dMhacWUF8WZLY75baHAtLeFFHrbZxvTfOIdbAC2ltYGNxgV4rvN2kOqWtc95RxlSFlWf01lfugltoAdjT0kfjLbQP+5XLl6B5JOSZ04fqChBRrg8kqCTjGT7BXulQCTnOazbVqBEtwpcccwOoLAJ+4it23PtRVyLTGUPDvYCj/wCJXO/puTwzqX1OHNCXLnqjrjzJrwK+dwjO4+OaXCGbRIG4sgHtS82r7gazoGlrE+VKTHgPKx0buTiPuUms/wBszeKNV9UxPlMbp0BS8EgVel5KUnKhjw2pxH9CWx9eBa1IP8Zq7MH+ka83OGVu7kqSzdyo7crJZdHzTmq/tvUJ8E/uOB+SWnYL9S0xFgne3zSM/wDTI37KllEVzXiQc9GUJ/zl1FnsaQUWlDMVnvktt22UEiQnlc/suP8AaHgalFblZu0weTLf6VV9dijoxKL5SR8Zmkp5JSj5ZtUnJq6qDrVaqYBVU9apVU9aAuq+rKvoAT1q6rU9auoC8dKKB0ooC+rh0q2rh0oBZ6f/ALTx/wA7+kaKNP8A9p4/539I0VQsuBu+Orvd/UefHv8A/wAOm/0e5zypQH8Zv9JpbdoP7FhGSB+Hz/o6QGhlZlyec42G3n61VXvOuK9FnNn6TbT8i5cbbCWC0nFqWMOLxn99PHb500vZO0pdrdxy07NeilMdJXl1JBG6SKkF9I8gjjTZPwAeSLUrqen75d8etNd2ZzH/AKq1iBiyGVlStws8h29tdUVuZQ2lZ1Q1Fa3pMVBQgqAkhwn81Ncwe19b5LPbJXLcjuIYaYhFbvdq7tOWTjJxgZ9tdc2IaH7e6FAHLSFD+ZUdkEHtm6+tbhaVE/c/Z5CojkYLyv0dQ5wo9PdVXDW6RfuaZI52puEd62Re7fSsBLuSg834qqQlm1npe2RWPSprxcSkc6GkOE5+YrrHr/RWkL6po3fTdhuQSCEty4wSACMZyB40gJXY94K68abErh9Bt6B/dLJKVHz8UnP3VWWO1ZvHqZX6Tl3EvtvufEgS4ynfRnpKCgrRhRwQNxk+VLLXN4ZRFhgIUcuunbA6KqeFy+jV4TPXeNMsc6/6dLS0rDTT6ZOSDncug4pL8Sfo4YlzajosWvVRA0VKzeIfPnmVk/wRFZ9tUWWV/cxnewthfHZHKThLXN/pWx+uuqOmXMaatmepZb/RUK+AHZQe4Ga8bv0rWduvjrpbjphRYTjSwVOoPMFKURgBPSpn6eUE6et46YbbH3VvjVRo488lJ7Mhb2xn78OM81dvTaEw24zRcduDr3OMJJOEoIz7N6h3fe0TMirbRaotvuIyQ4p2K+xynfpl1XNUiO3Jxbi2DtE3TSyoD78qXGYaadQ4kJCnGwE5+JHwqFNi4W6o1VFVKtVvekMJcU2F9AFApBSPblaQPDf2GonJRMsPcmm62Qq3+0Jqd/IRBtjAG2UtFWPmaxf6vutml/g5VvbB6AwGzj5im1lR5FvffjSUOMPsrLbjbgKVIIJBCgfHOdqxQrK/Wzn271j3EdPbltuO9A7QnEBqW2tmXb1OBWeVFtZBJ8thmvTUnHfiTcLc0mZdJFsYS56r0WGIxUrGw5gATtvik5wOQk8XNKgpBHpgyCMg+qaentWPoe0FprZP9sHOgx/clVXWqNe1JfcMqvjHr1QUlGtruo5+yJR6Vr5PFHV8sKbk6nubvmDJVSRf2ew23lRBwE9c+B2r2WoeqoqBJAPxqrSlG6EJtT02bN7Ul1lHmeuc1xX8p9f7a8V3OS60tLkuSpJGCFurIPXzNa8u9fWz7fCvNx71SNjt1rFI63Il1w4t8CRqHQ5XFaV/WVoqBTsT6O0Qfnv763vFtqMnSmv3vR2w93CPX5RnHLE+HjSc4ZSUovOlCVYKLQwP9A2K2vGGQBovXp5grmYb6eH9ifsqJxb4KwaItFKQrJaSSPYK90SAPxQB1+1/srVqmEKV6xyfKqpccKvVbWo/LBzWKxs31JCph3mJHZCXGXFK821Jx+is+032A9LbDilsguI5SpBIHrDP2SP20iFOjlCjypTnAKl9DXgi8ohud4AVOBaVJUnblKTnI8jtW0Mb22MJ5ooWPG/iZcOK3ESRKfdcFshkRIcbcBDbY5eblPRRwST18Krp6wWcxkqnLkhw7hthxKUpHtyMmm9ckSnJjtwcbdKZDqlF5eTlRJP2j1PWvY3q4N5Lb/dJznKNjXVJScag6ZwQnFSuaslT2a7JbofFIvQ0uAiE+cuOZ25D7K6kT1dy1EaBKSGgAD7zXIvsXXefcuK9wRKluPtt2eUsBasgHlAzXWnWajHhSVIUEONxXShQ6hQSo5HuO9WwxmoVJ2M04zknBUY/OVHJGenWvRMhCQcqSD+VUcZ3GS5Q5MhkSJ3esuKbKi+MHlJGensrRz+M+sJWUtyIrjR2AfU4Tj80iulYX8nI5krWllz7KVKHjjJpte1UpR7LnEtG4JhtJwRg/wAO1THq4o3tmI+68xFcWhBV+DeeGcA+2nJ4tRrjf+x7rWLAwufKjoDYcVkc3fNKO59markxNRaT3o0xz9cX8M5zw1Eobb6AvEZ96K7Q6aTyqt42wiywk8x/waa4vM8MOIzstpOIjSUuFXeuKCUJPTKjy9KdCdrrjpcA1NmcaUxIfdhlp62z1Ka5Wxy4ThCcgY8K5enaxQ05OTs6mXelcODrkl1sZJcSPzhV6XAThKxn2GuPsviLxAdUI0ztCX2QpSc93Fiuvq5cddljrvWNdeD/ABV1DHjXFrVGr7vDkAFmY/DdabXkZABD5zkfH2VspQaOR4p3VHYpyc2woNOykNrV9lDjgBV7hnereSJJWpJaZdI3KVtpJ9+CK4/2TsrcV2bklOoGdRRIaXEh2YLqhooBOArlWpR6ini4S8Zz2Tb0vS/ouorq3enkLNxu0lmSw0tWxHqJ5sDlzucD41aGiRDxzidEp2lbHOacTIstveBSebMVA6bjwrmHpPhgxra/agiNypEWQJjaWFodUEt87rwUeXy9UfKpcaS7Uzt+4iRdMXQJhtTiWWJsbGA6QSgFKgchRATt4kHoDTRcHdOuWrVSlPnmkSX2VuD+Ulx8/wDepSTNIakhf6f7BcZFmiup1tMMxbYK1LYBb5vHA8vvrxm9g68KJUxq+3PnfaRa8+7fNS1Z03b23o6ECQhoJBKVvqUPlXr6LHYaQBFYUSrGSnJwPjU6V4ZRSkQrldhvWbI/e8jTMwbbFktZ+41qJPY211GWf+LVmlnzYubqc/DapA6k4Iaw0/JN8tHGW6zGo7rkuVb7+0lbCo4BV3SAnGFYyMq2GQaei0SDLtcN8pKO9ZQ5yq6jIziplHSk7K9yRAOT2XdXRAQ9w5uKyBjvIU1pSf8AOOa1EzgdqC2NL77R+qYYxnKS24MD2IGa6Pjar21KyQFEZ9tZ2X7jIt9ly3PWec3HeakMuJtj5LcppTbm8pkjmSdwcDxqRdlUVXafnGzTY/pU3kV9auOeolE5xAWOuSfwjNL7TrneXa4+xDY/TW32v+DJ8iiHWq1aOv8Av7aurAgKqnrVKqnrQF1X1ZV9ACetXVanrV1AXjpRQOlFAX1ckZG1W15T4KLnbZMN1TqGpDZaWthwocSCMEpUN0keY6UAutPpIs8cEEH1tj+UaK0vC3S0PRWhbdZoEiZLiRlPFD1wlKkvq53lrPM4rdWCojfwAHhRVXzsWXA0HawucqFqDQDLDzjbT5nd6hJ9VYAYxn5/eaT+hpiVTlHB9bbB8MEGtr2vlY1Jw53/AB53/wCPSW0W8RcmRkYW508T0q1L0s6Ye0gF9Jrf1wuNWmzyFaVWlR5kqKT/AGS7TW9lbWyp3GbT1vL0hKHVkBteFJJ5SfhS1+k3c5+Lull/xrQv/tT1M32R1pT2gtKFW4Lyh/mGoUvUIJHcuFO5opwd1ISj/Npimozx7XGvpyY8Z5CLPZovOQA+lRiqX9v+Jjw86d+1PlUUqO3rkAH8kU3MW3Px+0Pr6Y4UdxLh2gNBKhzDkiFCuYfi79PMV0p7mMlueupoabgVpbt0mYvA9WIvJR16g+dWaSjosh7lQlx5BOe6kM7j38tQ27Zt7ulu4vz24FwlxALZGPJFkuNZ9Vzf1SKixpntVcZ9EwkQ7Zry9MQ0K5hHdcDiVYPQ8wJI+NZPKlszWMGqkjs/FuQ73lS+2tY6pCsEVW5vywgqbSHD4BJBNcvuHn0h/Fs3aPFuDdluUHmAkBVsShxaen8Kk5FOhM+khbtTsVN64dstRX085dtU9ffbEj+6DG9E1V2Tu1dEvLo9cEXi2ql25DYMlspeLPKpPrj8Yee1OlYf7RW/PTu0jaodcGu1bpTj7rL6lsen9QWiREYbuCnrlObdaWgPtNlPIjxy4D8DUw7GeSy28dNgNq2i74OWSrdnP/tmaStd74+asuV3ivMQ7bb4z6pbTfKp1RQkNoQvzJCtxvlNbW29myYxoKzQorpiXltgmZKVMXhSyp1R5EIxhBDzwJPrbN46Uj+2zqS4Odpu7Wd3uHIpjQWmELKkqDfqO5BB5dlB3r4Enyrc6u4o3EFEeyXKVZ5YeSh1tyR3oW4Vq9TPKSnmcDW/hzu+FcbUmzuj6cK/JFDtK8Irnw41lJl3C7s3BV0krVnu3kONHAPK53idyARuCT4nFNAITgUR3iQQcbKBqQfHzUt9m6uesd3urmpJMRmNKdmuzXVxwVICu7ZaWMN4+wVp6hIJzUquE3B7Q/EnSNuvUbTE1kyWwSxIbQFEgAFSVcuCkncHyq2lJbnOpT8cHPjRE246S1RAvcSMJ64TnepbIWUq2IwSkZFK/iJr/UXEqxW6JLsS4FujPrcakNMukOOFJBHMsYOAegOfGujLHZ1tdpBSzw/vbgJ2cjtpKcee2KVNv7PEC6QGWP3KvNR21FaWLg9yNhXiQgnAPtxVdUEtjVa3ycf2NH3ElTqYshRQRkIx18utbKNw+utykhDrkO2qI2+sHwyNvaRXWq9dm0ehvM2/R1nbU4gt94ma2hQ2xkHGx9tNvI+j+gahkFEiXE0xb+VKW40RwyHNkgKK3FE85URknA3NVc09iYpxdnOSXwukW9BU9qGwqSOvo09Lp+QFYdr0xp2U+tE3VrUMJJBUYiyM+w5wa6OXv6O3TzUxmbEvcJySy0hoB1lSWylI2JQlOCfM0v8ATPZ/uNjgNRnp+mXmWhy8xsaVLUn+UeTcjoD5bVZQi/JbVJ8sgjpvVGmbU7bpLepe8bixkxUOx4qklQSkJBy4OXPqjPvNV1BGVrqG+V8RLPDt0olMxMmZHaKkYRy+ogHOORJPtA9tdBIHAaParMq3Rb4mI1zrcJatjTmFKUVHAUnpv08K0v8AUyh6HnxGrhJh6mFwU4kCbYoTZYKQFDkKE58d/PatNKoxeq+SA9q7LOqtTWGVfbCEuadZUEtzprfIqURnK2UjdTf8rbPlWi1FwitMCwTno9/mzL1Fc7tyAG0IAWFJTk535cqB5vEV09uKkxdMLSEJCeYBICcADwwKirfLPDiXuY6qKyZfMUqfDQysZ238RWDlTNKbXJHPTfBDT3oTUzUV5uTLaJPo8x22x0PMw1DcKd/G5FdMjp405Os+HvCXhrHjtrtts1NcX09+0iBLW+tTeM+s2g8qQNtyR7RTj6YvKNN6hacjsttNyDyPBLYGQRykEeOdq1nEOHb7Y9GREgRIS3+9DpjRm2y4CdwSkDPurXE1k3Oea0Ohhre6v0iVJhaGtEh19X4NjUvIppkdMIbyOX4VqNS6OvlwchTf3OWW2yMqbXFtFvIZ5TnC1K5iD4DA86mxwVhw0aMlmRb4UpanQsOSYyHFpylROCRsNugqmq7i3GbWhjkax9kMspTj5Ctu1bM9dEaOx/pa5WziZfZdyY9F/rLKQhKWVJCjygnBxjbHT2+yuo+vn+7TISTsqM//AKtdQ70VIU9qOSHHlOK+rJalA4/vRGaltxIXh5wgDHcvDA/wa/21ZRUdkTdpEPL0cXu5eH75c6/lmsNLpGcnesq9jN7uOx3fc/pGsFJSAc7e/auxJujnKyFLVFfGM8ySCM9cg1KWNAk3PgnKgw5LEWS7yhD0louNpOE/aSOoqK4kMLUGxIa51EJA7xOeuPPrUutMJKeHMdJ3BUnI8fsissq23NIcpjZWvhpdFJS3cNTshGcAQbagA/OsC9dk/TurVtOXHU1xkpZZVHbZdiICG21HKkhI2Az8aeSIlrqoBoA/jkD41mKvdkhHEm8QWTnouSlP6TXnaNlR3LI2NDpXsl6AsjbEZyHIlsslRa7phptScnfBPuzS5hdnLQ7DbDcVi7iKweZqM7PUGkHOchKem5rfOcStD2vKpOp7YyB/GkoH661r/aY4WwQsHWttUpHUIdzj5VKhsaRyfBvbhwk0SNOvsytOtSsJyl92W6XG174Uk56++oX2W1ua37Rd1sbiQ+66pLbQI+yO7SpeB+SFE+6pTOdpXRV5gyWLZJl3JSk4SuJCcUkK8MqxjFQ/smsndB9pz6/TzrESeyXmmz662VNJS4hJ8CUkj41tGCpGc5tokhxx4ZIsUe132wNKjSLQWglxtI5m0IILbv5SCPkST0pO8LnRO1Fb3RvzuHmwc7guZ/XUnr7BjXeI6wtpLjTyCk75QsEYwfMEEjFRt4fWROlOKMjTQWV/V76lJJyVFpYWpGT4nGxPmDXRkhVNHNjyNqia7RBca9wx8z1rDYeW4hPOyWFoeWgBRBKkg4Ch7DsceVXtrPfMYA+yk15CQlRQnOTzHJFcy35NL2NTpOBFTppMdMdAYW45ltfrAkrOeudq3yUhJAAAAGAB5VqtLb2JgjzV/SNbVP2qifuowLquQdzVtXIGTjxqoGlQEtcZNROAYzEO/vU3+ylxpIg3G7E7lJaGfgaQpdK+Kl+cIxzQ+gP8r/ZSy0O93t1v6P4imR1/kqro+1/wHyhXJGDV1Wp61dXMAqqetUqqetSC6r6soceRHacddWENNpK1rUcAADJJ9w3qAXp61dSIu3F3T9ttTFwiN3K+x3slCrTBcfJSBkq6DbFJLVXap0VZdLS7lEXcpTqEcqEN29auV07JCgSDkHqPYfGrU7ohtDzjpRURuEvbB1Jqhp527w4Ut5UowWbctKYMhboJKVo51ALStIyM+7rT/cMuJ03X981XZrhpOfpm46fejsvIluIcS/3qFLSUFPkBuPDIpTEXqF9V34pz5HrVjfK4ByKDgOwKSDnwO4+XsxirGZceay93EhqRyhaVd24FYIyFA46YII38QR1ok7LCY7FlzdvHZ6tUt6QqWpd5vwS8tRUVIF5mpRufAJAA9gorWdgf1ey3psBQV/XO+bj/APmJtFUe7dkrhGs7YIUNQcO1BJUEqnEkDp/Y9IvRz2bxb/V3Lqsn4Jp2u01CRLVporAJR6Tgn/FfspptP4j3+ypCsJU4vI/m1KdtL4OqC9NnPX6R6EZ3FDSrhc5MWtxGMZP9lO/tpm+yewprtDaVBSrlTIXuU4/EVTw/SIz3mOJmk+6bKlfVbh5ids+lO02HZW1JJmcddMRX0pCFOqxtuDymoj7iINJ0dlLQtSY4Sd/wqh9wpv4T7iu0FxEQVFSGollSgH8XMYk/fS4s7pVGaPh36h9wpBwT/wCn3iT1P71sm3/VlV0b2Zvkhl23Xe44zXNSTjltkM5/NcqB0uc88+9zOK5edRwD7TU6u3KccYLuf/pcP9DlQOeGJDw8ec/prkpajeUmscaFvwft31rrBtDiSthDanHEpVgHA2+/FLXX9mgKucVsR88kdGApw4G5NI/hBcBaNUB5wAR3mltKVjdGBnP3UoNealipvTmH0LShtABQrJO3hXm9R3G6iez0na7Scx9uwg6g8Yb9yMNtJbsvNlPkJsauotoUBabb7dsVyu+j8nou3FvVRQlaUo0+SfafTYtdULYeW1WzzJIHzr1+mTWNWeJ1rjLK3Dghp2voeir2/wAQ2nbMy7rVtVtjsyJSOdpxHIHBncYwnIwnf1snIrRcM+I3DN7RFua1Bw0WJYCG33g62FLcQt5aCrLgUo87ZIJzu4jwpb8T9Ex3OO2vLzMjxLjHftyJCIfMoPvPIjMtttjO3rk8ox1Kh40yzuj7PdNfXgW2yuxIkCXFcjl1tLrcpn0m3RlKSvJ6qbcV7lHzqHFXsZ9xaUmjX9onUujeIOnpWkuHHDtk3NGZT9zaQHlMR2VOJKeYKKkgpwrGfVAxipW9hTXNx1lwYVGub7zr1rebbbcU2WR3TrQcbQlOMAIHq7bVHfQ8WJp7T7JFvZhP3dhLijzJDvOyCgEJT/c3Wu7dBO55ulOXwe1Nq6yXeVO05Gi3K2lYYuECWtLfPhPMhbLhOAvOEnO2N9q2Uaic3fbmoeCZSUDH2lfzqtWlsnKjv7TTMjizqt+0pnG0Wq2NlOSifLKFNnO4UMHH/wCj0IpOT+OF9ZhemL1Poq3w+coL7twVypUDjBJTtXNR0pkglttYPqg/GvMloJ+zt7RUZZXHeU6lRVxa0elCPtegHv1D4A9aRF87RdoipUblxqkREhXKnuLK4EKOfBeCKlJFt0TBuMhsMkJSCOvQCtcmYgA+rye3IAqDl17RmlpDLi4nEHVOpVI3UmD3LPMSNh64GM0moHaQ4b3V992fbdcS2GWw66sT23ABzBO4bc29Yge8+2rX+BfyT/l32FFB76VHZAH90dSP103usL1brzqCxtwpkeU6gvOLTHWFlI5EJycdPjUctMcZeFN5ukWFaNGankypK0sNuXJGWkqUdiedw7eZp/NK2RFsC+W2wLeVkcohJxzDzV6oz99W8ERqzY3qIhjTnI2CUrdUs8yidzuT7B7KjjryGuPdQ4lJ5Xts+GR/sqUd5a/rY2CBjJ2+FMbxMtIeta5DYP73X3iseR2P6q5JKzVDQPrVHbS8lGVJxjf7JB61i8RWJslu0TmUrebDaiogZKs1uQ2VIKDjfcnFZ/ftybRFbVnvIxUlOCRsRjGPHIrXp/TsYZ96YlNOcYrpoyyuwE2B15SyCh1SkgDYjG+/Q+FJTU3GO+zXC6IUNIXvyrf3+6sOZw91CzMkvydTPGF3iliK2gHKSonk5iNtttulaqVw3s1y1hC9GbRa4L6Ux/RZsnvWuc5/COOEIONxtt06710PJJbUYqCascLs86ovGptbXd+cy01ETZZgaW3zELVy9QfIbiugmuGTNmFrn5DyEc2M4ynGPvNQH7O+nHNN33UkbBDKYslDofJ75p0MuDkCfBP2s75zjap5atvcGBeo7MuU3HdebHdpcP28AE4opXGzSS0tIa+ZwJ07dH1PS4vfqcUVKUVrSSfzVVurTwZ0zbI3dswuXA39YqP+dmlqOdMTv0sOvMgZyynnJ92OteFuvDVyC2mos1pYOMSYi2kn84jFVU5vYj0ITSeFeme9CzbGHXBuFFpBI9ueWt1qKDGa0G9FdgvTIvfcpjtPKaUoYH46dxXuTdWZYQLM68g/3RqQ0ofLmzWBxV4jReDPDmRqW62+RMajvDMZrAWSoAD7RGKNzptui0dLkkhqHdGrmsc8PQiUIKv4d+5y3eYb4z6wG/srWam0xfGbFdUR9C2yMpTSkLdbSovtp5eqFOcwHvxSAH0jLkrUcKzweHrKo78lpoyZNyWlaQpxKchKUEfjedTO0fEj6/j3UTGVMsjDZSyv1snOd8eyuXHilOpKbO6eWMPS40c671w2ftFmgR5EGO6VtDDUwh0tgK3AWEjfqM0/nZJs1tmX/T0JduiyW2rfKVMjSoDLiI6+ZfdpQ6UcyyBjdQyeu1Shl9nzQl0W2ufaVTi0kpR3r6hseo2xSm01w60zo1tluyWdmCllJS0UKWrlSc53UT1zXcpJKjjeRfBj3qE3A0heEQo6IwTEd5Wo6QhPQ9QK5kazTy8WLzICfwan28Hzw2kEfdXV0xW3IzzHLhtxCkKHX1SCDUDON3B2y8Pddt2u029u4xkQUOqcuL7innXipWCVJPTYZwM0T2oQqboePQfH+yQNAWSLcn35d1RGU2ppuOpIIQcJ5XDsolPKM+ea0OleIeneKHF+Fd7Rap9tuSI5iTfS1tltxKQ6W+XlJIIKlZJ/k+2tx2f9Caf1VogLuejrYXoj6mu9M2QvJzzAgbAAAgY86TmiXoULjhNtMDT9usUK3vyGkGD3ilvY7xJU4pajnZORgDGTU3OXL2JajFbEt40lMoR346g60UYDiDsTnzq4R3ylCjy5SrO3lmtXoAqXpKATuSFf0jSjDasbA46Z8Ko006Rz6jAssBdstrUZxSVLRnJT475rOT9qsaTc4MFJMqbGjdD+HfQnHvydqT914q6JsDZXcdXWWKkbevNbJ+QNRUnuRaFXnAz1wOgG9a6dfmrQ9GalRpMVx8hLJktFtDis9Ao7Ugbl2nOFNrZUX9bW5YHVDXOsn3ADesFvtLaQujP1lbbHqrUDEfKkSYdikOITt1SSMDbxq6i64CaMGyXdi+61vlxjpUhlcblAcTyqBDjiTkeG6aydFTtay9calhWiJaWIapwQm4Tn3VpDSGQTzIQk8hClYGTvzA+FaPRN+jaiud0u0NhceNLgtPNMOp5VoClvbKHgcjcedKCy3PVFr/ddMtJsDEGO8HXpF6mODlATthDSVKx1O4HQ+YrVJ70Q2OZDkXeJfGoM1UKbHXG7z0+Fnu0uhWO7wfZvmtyhaVo5kqCkncEEEH41AfiP28r3F1mzpe32ey6rnGUhUSTYJL7brKyByICXm097zZyDsFBWPbSLuHbjva9NNsWe+ass8pAKERYOnYXoyDknHeGQtXj1xXOnOeSUJRpLz8msoKMFJO2/B0uCFK6An4V5rfaYP4V5po/844kfpNcubJ2i+JnEW2qbNg1pqSSpakhdv1MqK4ojzjoiZx06Kx7awXbdxv1gp23q4PNKBPqO6jZuHpCfaXzJQgn28tW0GVnTu4cQdK2mU3HnamtMN5xxLKG35raSVk4CRk9TSJ1x2hNG2m3csHU1reUqQmNIeUhb7LCVcwKlBKTkZGPjUEeH/APtEuXF+23CbZtPW15Ki2j0a13MoWfsjlW2tYHnvmnS01wN468O7o1Ij6q0zKlLQUuqksz4aVAgfiNHu+o6hI8qlY0Q3RILR3G/UWr7em8R1/W9qjoe9Jh28tc+ccqSyMgu92ocxQn1sbAeFNhY+0ZZwqLarhouDetWIUtD0vUT7FqVJX3hKSkPJHhy7EZ+NbSDwm13OkNOzbtpu3zSM88PT6JmDjchxTqFjrnpXtcOFt7sttLF24maklO4KVpYcjxIyh5d0WF4/nVqoFd73E1xc7Q1tcjv2XUWg9P2q8coPeTIJuwZAOS6h5lte6RuAn1j+KM1pYvad4icaWNTWGPeollEKKHTMtcNwK9Y4bT3b5Q6okqBUEDmxknGKx712blawkxXrVq6bYkpdSqU/aHHXZCikHmSrCkpQVDfKQCDghQ6U6ll4OaEixHW2dKWeflXORKS0+4Dn7RD/eK+PWohF2WbUSOjnE7il2foS9L6d4gaW1BAlOrkSVylvNtMrUAVoacc3HNnmPLnCiqkHZY3F5qc9eeGpftkhbZaeXpWVKn5ClKUpSkuIwo8yirPmonzqdWnIVnaiSGbA3b8MOqYdagoCS04ACpB7vABAI2x40zGuO1fw60Nqm52K8asKZLALTjUGPIlKacSTlPOlKhnOcg+VatNe57ExkpPZErewXpm6aP7KWi7Xe25bd1bduTsgT2FMvFblxku5UgjIzz59oIPjRSh7JWq7Vrfs+aVvVkekyLZK9L7l6UFB1fLLeQpSgdxlSTRXnvZmhhdpKZGjL02iQ+2yViTyhagCrHdZx8xTPW15DmprCGT3zaXVhTjfrJSTjAJ9uKeHtJ3iFakafTMZ73vPSSjxAx3Wc7jzFMjYdWquuo7dC+r48dHpCFodbyFKxnY/Pzokrs6IN6aOd/0jSubiTpMjp9VunH/AFp6mo7JiyO0HpLphT6h/mKp1PpFN+IWkV4xm2PD/wC5dpqOycCe0Jo8J/8AiFf0FVaPuM4+47SWc5gxz0/Dq6e4Uh4SeXjtxKc8fRrIP/t1Us7MvFujZ6+kr/QKRsZPLxr4kqz9piyj/wC3VW6KvZkKO3geTi5dsbZtcH9DlQSeH76c8ys/proD2xocC5ccbizcpD8WKbPEUXIrKXVggLwMKUB99Q513pzT2n4g+rnp8uS4/wAwfktIaQlG/q8qVqyc4Oc/CvMlmjHJo8s9FYHPEp3si3hvZ3HZ6ZKXCAnnGM4B9U+HxpeytK2aTIU5Kt0V+SsZ53HFJOw8gQPDypH8OrvAjMlt6Ryu8yyByk7cvurE1A05q3UEmNCllZbIWEucwSnoNvLrVIObnujrl21jVEsewhb4UDiJq3uERmCLCR3bO5I9Mj7k+/G3urpRAVi32kD+Od/iK5idgDRbunNfa1kSJCVPOacW3yJGwHpcY9c+zyrpvDJEGzg4IK1bZ9or1Ybo8PNzuQx7Q+mNR27ilrnVkW4CClcW2M2DC2kl6cghamgDklQLaFIBGFL5E+Ipt7pwg4y6aK/qy7/VEe7FkLjNKZbWJq1JUtKQlBwkJSojBBHd9KefiJqe4DtCastUZ799xLPHmW5K7Y5JafAQe/i7HZalLir50gbIAJymm24/cROKNk1dpW1aO03N1GuIUXlE0sOFKJCEONKbOwBSkOk9eik79DWLSsLeKo2Fq7POsrnbY1o/dJazfNNPpBkrXIUl0qSHIoc6JKA2rBwDgqUMZ2rP426Zb1LpNq6uRblDmtly1uWi0RgjuJwSeVZSM8/OoYHKkkpOSoCrNXytT2eZoG4fujksXO9vJtV7eQtoho86VNNpGClB5lubgZ2xuBWv4y62a4YX6+6205d3ZEosm1up79DyxNS1yxnS0r1VOIVzpKiDhJAAopGLhvwePC7gXC45cHdJrevKrbJtDa4s5qLGCXxL5j37ayDlJScdQc0u4HYd0hbrewy/c9RSD0DipaQVb9Tls1B7QnGjiQda3YytUzGJF/KrrcURQlguv4CQs8iU8pwNwnA9lbLi9xT13bNN29TGt9QslcpSct3aQMpwvb7fSpvybpE7rT2UeHthf5VtOzABuJkwHb245cVp9ZcHOA1sZSb/ABrHF7pYUgSrmtISfb+Fx865V3bUV11A8Xrpc5lxdO5clyFuK+aiawQfafnVNS8F1Z1Tg3zs46PjZh3jRCUo3UESWH1qx02JUTWmZ7TnZs0/Jc7mTbGXUYKRB08rlyOmFIaxXMZJAGyc4+VXBRwPVxv+2iluXo6qzO1Jw8bkqttrTKfdDaHlJYi92ORS0oTjmx/GFarVfavsujrBOvLVkuElqISgtuFtJUoLCeoUds1Ee2Ep1tK8hBhjH/Wmv2VuuLKweFuoeZWCZSwM/wCH/wBlWbbMlyPlpLt86f11EkJu8OPpbuX0sssqdckuyOcAJUAlAwAQQcZxkZxtSzm3d3V8AxYd0tEkTWipIEtKcI5gOY82MDIx7/bXNLQqUua606g4UhVxjDfoR3qa6haVsdtbvDC0xmwpUhCVHl2UA4MD7qpGKkjpW6E89wknRYjr8u/WaE22kuOqel/YSBknYHbG59lRu4/cSX9La309Z9JariTWClAn/VqQtvnU4nAKlp8Unw2xXQji+G0cP9VEJSMW2Vj/ACa64uadSVXq17f8pYH+eKhxUWqKcqiTfFC4So2jb1ITIdQtAaCFIWUqTl1Y2PhsBTERr85IP74flu5GVKU8V/pp/ON0ZMfhzfClWD3jCRjz79VRmjJyr7RG24z1rDOvydOCKS4JZdk6em4XO/4dcKkW91IyBhSe6c3UepIJGD7T5Cujl0vbdvnFtyGJPeNIKVuZ5UjlHkf1VzK7GyQdV3tZH/st5Ofenaukt6QJFy5c45WGv6Irbp5PtHJ1MVLIkWjWNxcd5G7XbQ2DjKSebHnug1ku6iu6mwYslqKvyMZKx92K17EZKCemR517ueo1gY+FX7kuDHtRXJ6Kvd2ea5ZFwVzfx2ByY+80yHbRefT2Z5pdkvSnV3FtPevkFXuOAPKniaTzkgbZ6+2m27Vthd1DwHft8eI5NdVOSpDLKSTzBBwdvb8OlVlJyhK/gvijFZItfJzO0jE77XFnWd/35GOB5CS3XZng+ju3dQJ5spS+nlHlsa5BQNO3HRWtIjF4iOQpEZCZa0KBzyB5CwdvYM4G9dFuFnab0/DM36vjyr0bgtyQhyPHdKG0N4Svnwk8mCfxsZ8K06Rx7KSZr1cZPI9iVw9UKPkM7Uz6O1bw/ky341tXd72plxbS1Wu1PyEgpJBwUpwcEEUmne1ZbbnEkNRXLbDdcQptCJckpcGQRkoUAdic0xVg4O6gtlgdt7es3VtS18ynGWFcrYKyv1fwo29ZQHUJ5iQM1ZOEXUjnjjlJD6ag7b+itOvqZesd9YUfsm5xRBSry3dUnHxpouIfE2Hxd1INQQGEMRlMIZQES2ZKVcpO/O0pSD16AnHj5UjLh2L9GajuBuF1uN4XcFLyEW95CGMYA/g1oc3OMk53OSd804Oi+BNk0LYI9lhIuD0KNkMqfc5nFBSio8xCB4k4+FS8sPtNMcHB2x5+zICdE3JXlPVjH5CKbHTpSzx2vrhPKfTJm+Pa7+2nK0G5ctC2V5i22N96AFF95SWllZV05icnlGAPCmW4hWa+21+86hsup7NYp86R3zC5lwityGg6+ErHdOqwRyrUDnfGeUc2K0jJ1aIlTkM852qeJejbl9V3Z2/S4a1ERxFvcW3+oScK2iugA+fNRdeInGvWd0cuFl4faj1I1IUVLXLnT7mnPjj0Ix0AfkinrTqyRZ7kiwXnU9uu8ZUZDc+Mi7yHzJc5m1qCG32uUoUFbJSkpSc+tsRTUas7YN84JarnaUtOn7TcdNSHDISwgphy0MlRHcJkRkowdtzy5znbbFFkbe6IljitzRI4D8euIb6LpbuH0GzTMAlMlbzJHvRcHnAfjS1sPZw7RVx/e05Gk7cojHO/bLc0tB/wkJKVn35zUm+CvaBhcWrOy9Cti/TI9jbuclyIwVLK+9U2WQgE+sOQEYUrmz55FL/Q+t7hq+wS5SkoadbnPw2jKjKbcQpBxh1srOCPLOT44q9tGC0yI7Quy9xMbcciXDVkWDa3SClmNdLpcQ2MDIKXQhJ3yeo648M1ku9iWSmYxIGu2UIUQFqhaejsuHfqFKfVv7SKkhqC439Fs/eDEafMSpH4J5Qjtq/jKKkoUUgdcbn20jLoOKKyRaLJpGHIGCl9+9TJCM58WzHT9xprJ014Elwrg/VFumREuqcEWAwx3qwOZXK9JTzHG2TjfG2TtWU9wK0FqW6Xi83yAq4Xi4yi+XESpTQQgJShLZQ2+EqxyE55RnPTbNYnDtUoMXL0xTapohMJfUyCEF3v5PNyg78uScZ8MVp+G/EXVNw46cQdMTrmJunYCVu22EphIMTlQ0SELSAVJUXFE82d8YIwRRK3ZR+4WDvCzRtgtqo8fQFkmJCVFb0q1IfWn1SQeZbbhUc4+Gep2rFgtxtHsRritzT2lbC2y25MT6MlBJ9YKwv1AhP8GQcE/aGBkU1vGnjlfuFfGBEWOym52lVmZUzBemKaDchxwlbiiEkK2bSAD0BVjG+Yy9oK1DV5st2fkrvfemefq+33xpC4khwZYASrmJQkg5CQMgBOQVA1Zq0tuCbrc6BKvitPJkz7/rSyy+5bTzPS0pix2OmRyh1eOYlOM5x8ajLxc4zcdTfZb+hUQmrS264C83EaQlDCEpUX+/KsFJJUAVJBHKdvGoh8Oez5xMc1Hap7WiLzMiR3g6pyLEW90OcgJyT8KmVY9Ys23hbedMXG1uWq+SYUiO4q8To1pbQVDlbwZTyCCEABRAO+SBvUxdIpbbG2Gt+PmrYtxjXS66plrLZ7t6zIjPqZ/GCsNhOcjCQCrcnOdq9eE3az1pwh00xo7XHD+/Xe5LkPPC6XZ+SiQpC1+qk+orAT0/iikNf7JbX3ku6r1vY9O3FTSG/ToFwN2bRgYGfQuYnH6fDqK87XrGLw1fkOQOLc7WUV6KY6kWaROhOq9bI5kvMgLRjOUEjOevUVZzvyUeq6OkOkb5H1LouzToq5KIEuMh1puQs96lJz6pIUd8+05FRb4/8Aaa1Rwh7SUOwQXPS9OSLah562LShtlbykn11OcpVkY6ZApO2Pthw39HRbDblX2HJjtpbZYb042645g5ALqZqeXPmE/DwpHat4x2TUeuk3zV3Dm7p1M2ymMbzKuTLDCGwDygsqiOJGM+CvHc1W0WTaR5cWuO2tdYW1t29qdslmjOOPpkaRfdYmuAoCUIcKlcq0b7pG+cKx4Uj+CeteJlvu0yfY7o0/Hl8kYLltNvyY61L5ygrKEqUpQbJxv16ZFLReudU3SOl2Fw+sGooS8FKoPpMmQzv6uVQn0Anb+Jt4+FKs3Xj7qyzpiWa2sKbQP7VXaxj7I32cuTSh4DoqqvSiy3Ha7MzkvSjV9vWsu8tUy5JhPyXZTAZ5nEvuleE42Kc7jGQOu+9Q/wBU9mLX/EnXWq71YbOJ8KTdZchgszGS4ttTy1Ahvm5/HIGKePRXBbjXdZLz0q/XTQlydUcpsstllhW/imK8kfJPjWwvXZK4jamurbOrtSfuqQ50lzLxKSpHvDjCwT+cKiWma3LQk4cE9Po/9KXLQ/ZG0HY7vFfh3KGbgl5iS2W3EE3CSoApPTZQopT9kjh65wr7PeldLOyESlwPSwXUKCgeeW84BkdcBePh4UVxtbl1ujx7RWnWb8mwqdWEqYTJKQpORkhv2j+KKjdplxDWsdPhKuZSnl8xSNvxfl18alLxwP4G1b49SR+hFRL0q7/x50/nf8KvB8hlNNPDOnHwQU+kOWTr3SQ8ra9/2lymp7KeR2htF+H76I/0a6dT6QshWu9Jef1c9n//AGXKarsqHHaI0V/0tX+rXVo8mcfcdmrIsm3RCTn98rH3CkwhPLxb4hOebVoHyYVSgsSsWyH5elr2+ArRLBTxI184M/wdqH+hVXQUlyQw7abhZ40z1BPMTZ4hwTjwXUIdVXhy4qS24hSeRxWCtRO2TU1e2e7zcZ7mVKx/WeKB7PVXUKL9ESFJUl1CklRJ5SMivJ0p57aPXtrpuTI0JGDs5SyM8oIz8DSl0A02vW93BPMO6JHvC0/spLaJmOR5byUBOOXOa2GiJzjGrbg6MlSgsYA3V63lXWovlHFCUaVkz+xhJePFTWLKlgN/uYdUEjwIlRsfpNdEIIHoVl2/uivD3Vzp7EEVKuJutpBW53itNvAtrI2HpDB2HwropCXmJYxj+6K/SK6MV0c/U+6iL2s7kY/aQKJUiStiUyLXFDDQ5I77jLT+VL65WlhXjsMADOTSL0bOe0Zrp25tuXC+MyEu22PbGFOOOx1LdZ53MEn1RkLJ29XO5xTD9tbjrrPR/aG1TY7Bd1WeI2mOe9hpCX180ZkkFzqB6o2G21R8Xxy19cLGzZW9Sz22E82fR3VJekkk7LWN1bHGCegrnlbdkwaUUTv1JooXLi0xcLXbHLwq3XmNJFvZlNtMPqCjlwqUPtIyV46EJ5SNxSd7Q+h9Hd9rO4SnGo8VpxUmW4ypRXzkK5VJQAUg8/KMEYwTiobRrJxVuunDbI9m1XNtDj3pJaahSVtrX0CiQnfxI9pNKK0dmXjbqGziPE0jd128u9/3EiQhlPeYxzcrixvjA6VThFrvwaDgoHLrxDWt45dXFeWo4wAcClp2ibf6HpezbY5pjny5VUqeD/ZZ4paO1c5c7zpVcCMiK40FOy46udascoGFnritv2iOEuttQWq1RIOnpD64zrj73KpPK2nBG6yQD18DWlrTRZJMiL0GaqM4p6eHnZluutoTEmXJetwfccbYQhhC0PqQgqLaXC4AFnBA2O5FOjZ+zXwhbt6DqV7iDYpiVJQ6FNRu5So9cL7v1gPZmsk0+AoNbkRwrHVNX94kgJI5SMYrpVw37HXAHUFuc9HjSNQuo9Yl+5vNPhG2FqbT3ZCTzDB5cHIwd6Xdm7JPBzTa+YaKhvKBykzA6+nHt7wqBqd74JtLlkH7YtLmvLiE/ixImQN/+VtVmcWJiFcOr0zjmWua6AAMEn0hW2PhXQu2cO9BwJ7kyz6TsonFIC3YENnviAcjJTv1GcedZbeqbJ6Q9GeltRXEn+BnNJZ5f5wGfnV0pt7Irqj8nIDRFgubGvtNpXbZaP39Ge5SwoHu+9T6/Tpt1rpbpWWDdY3rbGSggg9fwgpRau4m6OtT5t9xVDktuqAPeuNKZyDkb82MZpEan1zoLTi25rUso7txDzq7apTobHMPAgJx7vhWsITit0SskeEx5uKj7E6FJsjt1gWxNzYfYckzXEjuUEYKwgqTznCjtkdK5b3DgBrDSuqremLanLtb1S+ZqZBb7wKZbewHF4Ku7yE82Ceh61MaRf8ASGpr1b+IN81c/Bl3RpUGZ9W2j0lhKGgQFJQ4kLSEowpSlbg55cVjdpGQrTWjIF90pJudvcjNrQxfnOaJIdTgcvOj7RCgcpV5Gs5RbZomhtuK/DPVmotESoMO0p9LuAbmRobkppt9xhLxUXO7UoKSlI3JI2BTnqKZvS3Zl1nqSRIYjJgNyWEhTjT0nKkA5wDyggZ8Kdjg3x91nfNcWO13+c1eLMxFfK1S4qFuMNd2VLU2Rync7kE4VjCspyKdJ7gxYL+tF4uHEm63ZL7Ta3ER4iIPMj7SMllwbjOc4rLKraRtjnSG07KWnHbBqfVMSWMS4qXIrhTnCSE7jf2kfKugN3kBibJdWlSktxmlFIUAThvfBqF/AvTi7JrbVz6H1SYkiW42y66tSlkDCRzKUcqJGN/fUv8AUrilS5gSSMQmjgDzarVR04zjyS9ditjaebkR47yZIbTKQO6bcbKyhRGcEgjm2B8BVHrNHtLpcmzXGUKUQgqLCW1dcfbOf9xtXhcp02DZrE9GaU4pJQeVI3/gleFR347HWWsNf2uZb7XPl2VEJhqRF9I7hoKEhxToKFEKBUnuxzjwGB418p9Q+p9X03Vw6fDjWlq9TTr+Nj6b6V9L6fr98uTT/olKqJCbtRlMtIUUbIccbbzjPKTtsfH9PXFNbxb1NpzSWg2rnqq4JtdoZuABkLSV4Xy+qkDB5jsdvZTitx27foZDLTSGGm0JSGkDATlQ2pje0zd4tn4NtzJ1kRf2W7u1+9Fx+/SlXIr8IUZH2QD1ON+hr6fFWfEpZFyv+D5rNHtZZRi+Hsa3V/F7gnCtLUefqRq+vyWwU2ebp917vM4ITgjBzsd6QsDtC6MuvGPTtvs2l7jbHXHFKuL6322YckFvCO8bSPVSgJJ2IO2CcbU1Uvifebf9QTrLEstqiS2FvIfl2dlvuAM+qlaUkpcz4HIx7a2lq4q614n6g0zLuciLLmRwpMCWmK2hbKClRUdhurY4JHiDissUMWHbGkbyc8qubFEjtqRdQZ0UnQNhuUNx963xX5eCX0FSiHELwUgYOQokAbGt1wA1HqWxRtcJ4f2exXGU3OiNRbfIcVKiKLig2o87xGSnCtxhOckZGKYy/av0Uzp65NWTSUzTs55xl166KuSX3i0kkqTyBtIBWevUjJINLPQOmL5K0FreHp24W5icj0N1LE14iMUKwtzJGc4SfLr5V2a7+1HP23wO7xH4u8ZLbIES+xdP6NfWwuSy5CtxSXAg4Ke9bQ4jJJGArGcjfwpM3DWnEW9WxyDd+Ps1hsDBjWyE+le+4HMENAkdN/LeknapV74f6ZhW6Fr+yt6wMp2RIiNFm4OPxA1zIbbJSe6IPNskAEcpJJApvb1qV9m4ajlX26OauuT83vZJVG5EtK5E8jQTnAITjcdffVudmiXFRHP4cuMaZvbipN/u+r5zmAhN4iR2kjOBnnW+seG2QMZ861fEW0aO1Gy/LmW2RbbkqQt6FMTIQ/FUS4krOEJGMhOQB5pIJBFMbpaXKMu6M22wPTHbgoslx9aXedpZbwzjmHd8vrevkKyB6wxSxtUHVE/S0GQ/ZX2XZCnFmIlCluNoQlsAlvJWlPTdXU7AkgiikkqsmUVsxy29NW53WNtv7erosFTn4Fu1LbcefIS8EBKjyEN82DukjBIGetMXrqXF4g68uM25KbhR4HPHcUwVKZIBWlGeY5zzblIJJ3wCAaX+qFXTTmq7Hf5tmltWtp8/hm2V4fUHi8r1VAKSAlWMkAdd+tIlHCXU2r593fjxHX9OQWnrsm2zkhqUS8tZOU5KO8HLg5OQnAI5gU1CkkVe6okPwC40cOeH1vt8RfFyXbZ3o8ZidbYVoPI4plAQjmfI5sco3wUpJyeUHJqTfDDV9mlSWoGl5L2tLDKuD90najjz2pMhiU6efu1MNpO2+BkggdRTEWPTml4HZxvFt03pxqTZ1pmi8O35pw3Boejnu1w+4AGA8BseiQebfJqIXB2wS0aPu7rj7jCoz6VKCJK0pUktdeUHlJz4nfFTHM5ycJLgyePTudU+IOttRWKbFhaUsar/AC1y0x5fpEWe21DQro4pSIqwvfGQk58d960KHeNt2fhMx16KiCVlQTDMmS4whKyhbjneFoYSQNhlR8EmueH9UWRCRFgS9QzkxhyhiO+sqYUonYAJ/XtTr6P7SfEfTcqMiDqRp2CwA39WKCUM8pPTu9yD7djVmk+GU1NIlPoNl2NBuCZDgdeTEjhx1CSErWJD/MoDwBOdvvr1f4XcN7TrP92Gr+LMzT86an0g2Q31qGhLfMU4SgDnU0SjJBJBOaxNCzVzrI/JcADj0CK4tKegUXnDgezJrZQdKab4r3+6v321PypdgKbdEcNxmRkuIOXF8qWykKTlSd8H3+FJJ8WZJq9zU33WfZzvN5cCtR2bVEspZbcE6xTLst0Mlfd7pPLtzrIwn8b3UltVdpfQ6YTOltFt3nTzNuYUEr0+4xaA4s/ZcU3IQkuEHfBJyeuelOvaeDmi0x8R+GGmo7ref35Lh+muubk5WXQCrfxJ8qy/6oujdAw5Frnas0rpYNgqUww5Egup/JbK1E/KpVryX2ZAw8DtYcXtcZuKNZXSItxRdudzgrfKEkEBX4JSkkJVgnBAxzY8KekfR7223fVbL0GbqJtbZNxmz7sLRHadHLtHCmnXFJwojCkg5So82MU41w7a/BmM+9Fm8Um7n3RI5HG5Oc+xbTISfnSRjdtzhHqDUlu0+xG1BcGrrOZtzDioveR+8cWlCDlx/mSnJGSE5xnaqPIlVssoPwhN6T7G2h4M2VBuGpmE+iSVs+lW5DDJaXnHdlbynkrx5AZ8cDIFOFA7F/Dm3SkSZq5F3bQchTT4iufEx22fuO9KWfqNHDW1aklfufmXOBbo6/RjBKFIElJKUNKbKubCzjKkgpG5wN6Vll19B1hoqx6lsNo9BkXC2enYncqVpcCgktnk6DmOM5OwzirrczbE5B4KcP4roim2MXqN09DvRcnkexPfuOY+VKLTfD3TWk5zp0zpeLYXMZW21Dbjc3yQnNekXVuuZFsyLXpuO6wShU2c85KWFeOAENZA8N/fSZ1UxrDVkRhyRrRdouLCXWW/qlIZhvtLHKoOtnvCdicEnIqyW/Bk5i2WgtSlOehpgOZAL7rxU2o+WAVD2VnT9FT5KTLuVui8sYF70lKEktgb8xyEnbeo7o4BtKMCI5fH40eL3akSbevmcC0HKT+EBB365FOFB4l64t9/tNrn6glXe03d2bDeau9sYalNpRGWtLiXGFAKBKdtgcdcVMkQsleDZ2ziPYdSNoda1ALuy9ylCmWloUpKlEAgqBB3G2P0UiX+P9hM4RoduustRdDSkTeRtP2sZCkn49KbLhbPdkWm2L5yvmLCe8KVgqw6rchRKsnruSfPekM5NW3PecQeVaHSpKvIgn9lbaUqM9Vo6r8CZ7dy4X2p9qIYaO+lt9yXVOYKJTqSeZW+5STjwzjwopNdkG4SLv2eNLTJbhdkvLmrWsgDJM1/worz5e5nbD2ozOPK3Eos/IkFHdySpXNuNkdBjeolaZUU660yR+M8v/u1LDj/AC2mE2ZpxYS463K7tJI9YgNk7ZydvL21E2xFTevNLA+L69/iipXhnViRBj6QRfPrnSZwc/V725/6Q5TW9lMc3aI0SP8A5s/6tdOh2/eZesdJnBwIT45sbf2QvxpueyfbZJ7QeiXg2O6Es5UFA7d0vyNEtykfcdg7Av8ArXCzv+/F/qrTrJGv+IBPgm2bj/Aqra6fybTC8f38sforAeaH7s9fKBwSm2jr/wA0qupFJckGu2c4f6sV0wetoi/0F1DJ5kFLh+yTk4+dTD7Zzp/qyXXB3+qowA8/UVtUQ0sTXULxbnhtnJIA8fMV56ajOTZ6Mk5YopGFpPmEp3ABJbPU+0Vt9BRy9epb3IXO7UDgHqebPn7Ks0VbHy68sBvlLR3UT7PKtpohkQot5lOqTytuoyEjPXm6b1dZIvazCOGSadEvOwtZ4TXEbXdwaEhqQ/p55K23VAggvtHbc+WK6HwjhmxDqOdRrnl2DJ6ZWrdZ91FU2Bp9auYjAx3qNvuroXBzyWIg78yv0104kq2MOqb1bjOq0dp3UPEu8+jWGFI1ShtqTJcXET6QtnHIhxKiMrSOUpyM4wQelbmRo5qGo+lMQYywcBEhKEH+jUdOLd81LP4x8SItsvlxgTGdNtxILtvd7t5htMqM4Q2fD+EdOfIkU2GpOz3fbvrCBb3eLWoNeWBbAeuN3tSXX/q5RKuVtbYJKlHl8DjeuXS7tkRb0qiaVwMPT0NUqbdIsSKg55mpaAn4jmTSYmcXuG0aOt53X1ifW3kmN6UA6Me7mqMFw7I/D3TNuhu6qv2oWZ7rYfXElXFmGFIJxkIdC1lPt89vZWXaOE/Z+m2u7uWyxsz1WdlMic/JvEk922pXIlaihCRgq22rSMF8WVbn8jwye1VwnaS8J+pDEUjJyyhUhBx5jlTt7jWbY+O+mLkUq+qpFyhONh9t1lYaKkHYEoLh++mftFz4I6ZUu1Ksun2LipSUtR3W35inAVYBSXzykDxyQK2t94o3jhfraZp6yw7BBaiRETS45ZYrTKms+spDnKebYYHLkA+OKlpLegk3Vs2Vt42aG1vxosEdnSK24q1OR5K7ghCeVK0KCFFGSFKSocyVHp8aipq3iprR1y5Q1akuVxsCy4Y0e8R2nlqbySlKuXYKxjJTt7B0qVWiuLCeMus7JL1NbUsO2qNMMSRbW2kOZKSoHZOB9kEddjg0xmrtW6S0w1aRoy03Kyd3GkNS35z7U3vE95yq/BFASgqBGcdRy4wQaKmqou9UR2eCGqr5c4WoZkCLGttwb0UsssxY38M4lpJS4sHdfMSk8vTbIG9YerLb2m+Hc6z2m965t0ePdu8ObbF79mMEcoUHlIb/AAeebbrnCvKsfs+3CddZuuPQJKo8lem5K2FkBOFYTy7dPEer08KzeHdw4p8OLohCrzZHYEotqnG5lhyShsLSohDa0kgFPODgg55TnYVLjJ8FW0zV2jhfq+9semXDi1JalK3XHsUd59sZGQefDfNkYPsyB7ax7hwB0Y1F77VmudROuK276Q6zHStWd8FalfKrte8Mr72gZb19vWvFRH48FphMSCwGm4aQCspWhBA3KifdjwrxZkaX4fcI9Pwhdo+qBFS7JiTXmQpUgrVzKUlK+uMjA64Aq8YLyFTdM87DwZ4XWIyX0Rbxd+SO+9yvXVBS823u4PUQObBSARzbHGa3Fh1ZopVrUi4aDDUC5N4gPNrceU63nPOQpz2ezxxkU3tq1nOsXD++rt7SJ0tuQthyS4wtT3dvNrLqSoZbySAo8wB3wnO4rUaOuFzVphhmRDfaJKExW3gOcBBJShodcYJykezyquyN9CjVDiXDRXDu4iI5dNVsWmS2+tKYrEV30p1stEgKVjlwPBORsOtbC06bv2t+H0O32ixwtVWkuvsrfubjzakBK08uOQkgHrgmms19bbjqRm1otcZcqeuStbjDSFBaWwgAFSlADc+Gc1utPcW7zpmy6cs1hcmqmRpcpV1jtOFpLbSnE8veAgc42JAB8OtUbVche4VLvDS/cH2/3VXODZLPbI2IzjTLHM66l31AylS9xzFR+Gasu3BdzTceM5dOMbMZhtASg2mZHZCkDbbGMjA86ePSeqdEItsCU1fI0zVkVu5fUdqnvuRWJTncbPyigErdX66ck+qkJCRnJqPkTW0dLbyfqpp8OPPLM5ocyXgp1SgRzjm8cb77b71xq3PTJ7UatqthZ9nZlv691Gpic7cGUuNpRIec5y6nnICvLJAFTBvAKrpOaHVUKOB8WjUR+y4yqXM1S8Oofj+GMZcNS2ui8X5wc2E+jRs+/krt+2r2OJ+9MUMzVtmsb9qsV2udu+tJrC3LdbVNud6+W2yo46gYSM9R41ajWyXdQPWVP1h6d9V/WfMYCfQmxlKeQPEZK8q2SfDJo+s7PLlN+ntsF1ptTTUoMEuNhQweVWTispu5x4MdcVa1Toim+7DqVJSsJAwOiQeg86ts6/ATe6EbZuKMvXV11baHtK3PT7FjmNxkXCU+tTNxHOtPM2koSAPwYOxV1+NYfFS1SrroOKxFiqmOm4tqLDZAVyhKsncjpkUs7re4M1lSG3n3G8ApbeKyEEHYgFWM7fprGj9241C71rv0ofLhZKykKOAMEjBx/srGV6aRs5Rck4xpbEdr/wBnv91MVtmRHQ1HJ7xxwOpS8lQO2/Kcj3146R4E3vS18t0tmKwIlvkBKW1PEOOthCgHc8uASVeXhn2VLmJeGUv961AZQB/cnGw4j/O3q2Y4ubILsdhu1kkEqgDuio58cV58ccr1HQ8r4IYSOxhZ9RBhy56gu7k5tosLRbg0G+TmUQnlUlRyOY7k70jEm59mTU1+jajgSYkOQUtwlzGC2iYhXqtKSpQwQCQFHoD1HSp53xh26kPTFmQ6Nu8cHr/OoRdtSFbrtqFiyzpvdlcFBbad7xfKnmOVDAON/dXZG47mDdkUV8UJ8nVsxq+tMXy3fWb8x2I6kOIU6SpBWhYAzhIwD0ICdsVM3hjw4t2p9Kxb3piHaottkjvWVrR3SnNyDkcp9YEFJ36g743qB15ttx000UrgNqCyGmnGn218xAB3QlRI2IOcePWuknZXiqHZ50ipSShS2Xld2sYI/DubYpKGuVtiORrZmRbeDbLrJefuyY8nxjpgcyVdc+vzj9FKe3aVi2NbPoXfqcKQHPSClQV1yBgAgUqvR5DTIc9DeLQBypDaiPmOlZqLbJRbk3NyMpqGtOA46pKB8ObH31ZxrZE6rds011hQLrDKHLXGZRsFlRU4le/ilZI8K0LVjtlpiPtwbNBiOOJ5Fy24iEvPDKj6ywMnck/E0trHYnNUBX1fIiLCFAJHpbRKjjOwSo1oeKc6zcG7Izc9b3uLpuO+vu2FPMvPodUAcoBQnCVY3GfbVtD8opqT2sQWqkJHCK7G5zoFrukKRORpxj60d7uViIUhtYSSCsNFSu6PqoUAMCogcHVCfoqdCuD6H463o7Je5ChSmiMHn3O+Cd805fEbtX6M1Np2fp+16lmqYWXFNPRLXl7nLakBKVuK9VKhgKIHSmn4PspGl7i1JXysrlR0uL6BKfGqTio45NshPVJJGHxdscO16xtv1d3ZtbU1ttgNqz+DA29+Mda2chyzSNQMz2bghsfwSo6kKGVc2xzWm4sWuEjWEsxHmSwmE2hllbgU4kAk94nx6bcw386S1pkSvTrS9HdJYCwosg+qrChsfPzrlxzWiH8ITi1Jo6a8PSpvTjqeoTboQz/jT+2mA7bPErVfDPRcOZpTUlz09KmX1Tbz9slLZW4juFeqopIyMgHFP9ojmbsk4fxYUNJ9n4UftqLH0iSj+4OxNn8a+OK/0KhXqz2Rwxf9RWQ0uOqtQ6qdk3O6364z5ZOVPSJS1LV7yTWjCfTlBx11x5w7nnyo/M1lxP7TST7assrLby3irBDbSlAHp0rz9Tps9PSm0q5BttAWAhIwD0xvTu6CjmJxQ4boOw/dFbD0/wDmUU1Ecc/MU79D1xtmnk0213PFfhsjJ5vr+2Hfr/ZKK4skv6uNHoRguzN1wjofxaddVorWCW1YbXJSCAN/7Lb8fCtvwdP/AKH9IFJz/WZ9OR/0mtPxPeS7oTV24CjOCBnxIkpP6q23Bg95wm0UMHJtEgED/pNfQ7bUfOSeysV4gnmVnOM9DVBbwlRI2NKiJZJUxAW20kA9ArOf0Vn/ALhLiiCqUEoJ2w2cgnetrrYJCIkW5MmOtpYUA5seRXKTSK1+4qJqTRi20kuGXLQFJ8Mw3RkbH9B91PHJ0o/bYvplweZgxCNn33kIRny5icUj9V6W0RfG4Mm/agt01iK6txlmJKLu5QUqCg1nmHKTsaq2qIlG0MDwpgtx7PZUcnIEuRklOMYHMr2Jx8h7h0ps2oki4XSU1GYclOF1Y7phBWv7Rx6oyTU8NLxeHOnrO05Zre1I7rl5GoVuWlYx0+0BQ1Pt7jbjtv0bdn5gV6iJEdphtW/TvOYkfKoeSL8kLFsON2P4T1u7Omko8hh2M8j0zmaeQUrTmY8dwQCOtFLvhe9JkaFtjku1GySCHOaAXu+LX4VePXwM5GD08cUVwt27OmKpJDZ9py5qgyNNtejtLQ8zO/DKeSHGyEtYCUEcygcnJGycDP2hUY7G8Fa/0iM55n1/pRTofSDcYLHwlOhVXdwtuT2rklgpQFKPII3MM9QMrT0+NQ/7KXG++cc+KENmbYo9uRaHUOc0Va1FxKyclQV0A5B0860j4OvE/BjcfNM6bvVztL95YVJcaadS2hBOcd8vOw60i+EY0Pa+LGnI9tjIZuS5HK2FtqSsHlVnqB4Vru2vanbbfNOInLmxHW2H1d2zzg7vLIJKRttTTdmuSyrtE6K71Mock3dctxSju2voKuvdQUt6Oumn2SLVDUE7enLPX3VgS2SnWeu/HKbf4eTKqV1jk2CJaIYdnNBCnjyEK+24QNh7aT9xvVoGr9YttvhTpEIY5SMkMqG3xrVXfBzzW9nPLtkuY4zXhQzhNvjgZ/wZqJsrVktEcgL+2CnBG4qVvbJuEZPF3UiVKIcERlOCPNvaoVKeKxgkKrzWk5uz0JT04o0xT6QnSAmShtIIDZ35sVm6HvzNvbnd882hbikENq/H2Vvvt41qtL3eNa2pRf3KkcqQTjetTHZcbJ7xp1Sc/ZTtV3FIyWV7bk/uwbf4t0uutyw4orZs60qQtnu1JGdunuqfkBzm+oQDnc9ff/srnB9HQ4H5fEZ0IbDiLRyFYWSonCyCr5fdXRiArlcsG/TO3j9o11Y3cTl6ndkL+IHDa/cWeK3F+zWB5EWc9aGorcla+VLa1PRlDJ6gFDTm/uHjTIaw1fdeAz72ko8C0afuEFUcyrhAmOBbqyy2ptxaQQHMetjI69dxUrLXLF24lcVIUS5v6OdYehIc1GwW0qOUqVgFe2wwMHwVtvSD4mdnVWv9dyL45alajlvtR8X1x3BlKSyhHPttghPTHUq8643OSk74NY2lEarTOl+HfFri1qBOrL73suFGZMCV9aFDauT+GSFqPKpOSCN98++nfsF34WWdjWNstMj070KO3HvC0yUhju+bmTyqSSFHm/GSNjtWgHZJnOPtOr0lBLraA2lSeXlCQNhjp91KW19me9s86UW6FAGAD3ZQjmHkcDet451VaSJwTfJprHd+Ft8RcbtetHMFq2cjcObNUJq3UdSWsBJGDsQRnO9N3xsgf1QNdXC4W7kmWR2GwyI0pBAPKlXMMDdBGR6yffT92/s53NK/3yWGsEesF836K3sTs9rZkArmx1NHGSltQV8+lVlO1sgoxXLI98G7jH0fe4UyRbH/AKskR1oIkIDjjCFtqQpO2MqT+KeuOUnfNMvr3h3OsdmbnxW+VAUlh9IJJKSpPKSfZjHxzXQ5vgDa1oCfTHl5wSnu0V73bgdpl2yzGX7Yl5lbDiXUvkqbUCk5ykeXXFV1S8h14Ig8DLg3bnr3LTIDCW7TzqX4Y5kDG1NtrnjFcpvEWc5Jkzo9qdX3KGUHDQQMDmLY2cSTuU59YE+yldoSyOI0xqs2mYxPH1aqEw8XA0XXCr1CEqOdwjJ8sgU1N/01Ls5lwrtbJ1qXhIbfeQpSefkJ5ObGx3SoeYBBG9byk3HYypNj36b4KWbUY+uGoE6eZxDz3o8l70ZxR68qQQOXwx4dKcO38EQ5BhxomlGxHglXozSmwEs8xyrlydsmnE7MzRRwG0oGyojunDv4kuKOac9LagCfWJz7650n5ZrrVUkMRB4PXtuOtluHHiMLwVtrcASojpzADBx7a2cbgnNdWhb82KypBygobKyk9Mg+FPI8pLBIdUG0jqVkDFWekstKAWopCiOVSUqUD8galRIeSxqf6jjELeROW8kjohGM1pZPBTT796M95qQ4/wAvIohwpCh4BQHXFPpPt7giF1Ud4oG5UEYGN/E0hNS8Q9E6PhmXe9SWy3tA4w5KQpefLlSSc0cdiVL5EhpKHF07rK56TsVhdtM6522StnVMRKQth4sFKAHVpUEKGMj/AHNRDvmqJtt1jeIzrHpDkeW6h15UoLWtaVkKJAABPMDkjqcmn1172ubNbJsyLpWVpvV9luUNyFKt11eejgc7akqUFIwSCPCol3m5l26zpIZjtNvPLd7qGSWWuZRVyIzvyjOBnyqFjuWpsnXXBLfshTFz06wdU040PSIWzqQOrp8jUsLs131+fONvRo42/INRC7BvLcoGu1pSolqRbhg+1xR/VUwlku3WQSPV7lgfEJNb6ajRg23kR4x4+CeuRWcscjRwSMDrmvNpPKs7bdayFp5miB8xWBs9jAaBK8J8fE1sWX0w221u5CUBRwBk+H+/lWGyzyrV7utI3i3p2yas03Gh6gemNW5t/vSYUtcdZUMgArTvjBOR0rTGrdGcnshwI/ELTDDy2Df7aXU9UmcxzD2cvPmkfde2DwksM2TDk6wtpfjnlW00+pS8jwwEYz8aa6w8IuEcJohrh/Gvh6ekTWHZLmfywOtYfHzs+T9XcJJEbS/C1cdbIEq3LiQ0s+OCAonOCOvN5Vr2mkE7ZvL39IRwnbLzTMm6PnfCmbapaSfYrnApguIHa24U66vy5l54c3+9vNtdwzMRdm42UddkJTlPzpor92RuLul7Qzd7xo9dtgOpKkPvSWlJIG5UOUnIAOdvhS40d9Hbx51fb2p0DT1tahvDmbkTLs0hCxkjKTv91Z7+UTaT0+RCaW4/RdLXK5rVw4sOo4Uh4mK3eQtxcZGTypykjnOCNz1Ip0dK9rfidJ05Jt2n37Fp1uOtKYNqatLZS02edTnITk9cbnfenC079FHxKlw1rumpLDaH1FOWj3j4GPJSMA5p09H/AEXsS1Qwq+a7kqnpVsm3w0hkj3r9YGrKiyrlkX+F/GLiZxZ4kQ9L3vWuqbLbpZWuQpt8ojqSgFSkoQEgZOMD371KOFwZ4XRHxMkxLvcJCQFK9Ovch1pavElBVinb0p2L9FaMCZCJd2mzEIKA67JISkEgnCcddvkTVeLvDCZYNDTZ2g7JGkaojhpMdl5IUhwF1IWohRxlKCtQ8CQK1jKK8EKOqSVjE8TE2i06VuUnSGn4cKa0UECBEK1YKgkkJT47jcb7UyfFfiRqbWfCvUGlVqujFsQwn0lU9EhSC4n108za8hBONiPMVKHXOleLF0svD272OAxb7khzN+jxihtSQSjkJSgYUAO850DbJTjpWza4IcQdRcYLnc7hHdmaGlwkteiN4KnVFsIWhYODyE5Vj8nB2qXO0UyR0VW9nI2HamLn6CwFJjOSFIb3G6eY+qc+w+HlUjuGHBzUentJXSKVs3L0iQ2tstO7hIBzsdvvpa9o7sMXvhBfYuqbRalS9GKkJSpopXIfjOHPK0ptAKlDIOFDbzrJ0rwM4qzLYxdrPw/vIt7vSZBeVHBB8eRZAHxFV7etbsrreOQzGpuF93s1yvk9+zXDvpDYQ2lLKnE8vKckKSDjfbFJvSbRitWht9tTTqG/WZcSUqT63iCM1ObT/D3izpmC22/IuVvJ3S1eW2JiceWGzzVu7hwl1jqNttmfozT1/bdQQX2QYzgV4Z5h579axl0l0lIt348sVulVBu23NCRkejQx7PtINRW+kUdzo7TQx/7WePybIqZ9q4fXW2xZpUGBzsx0Ky8AoFHJzDHvSd/GoU/SLq/4s6WGQc3OVnAxkhPXHh1rWZxw3yEK2CRZ3s9ObFYTY5QCNuYYrNZJ+pnQP4/lWC0duo+ftrgjtZ6bv018Ga0stsgp/ig4+NObwm1lLv8AxQ4eW+ShCynUdtc73lwo4kI2++m0ip7xGCMgp3HlvS84ExQrjZw/UE7i+wtj02fSaz0xbTa3OiTmsclHijo/xE1o1HtV+0yITkh+XOMtb+PwbTfpCkjfPUlB2rbaX1YeHPASw6hbYZkKtdilSUMyQru3OV4kBQBBx4bUjddqSbpqNzIKsMpPkcy5Z/7tbTV8k2rsrx3MgKRYHPtAEes+OuffXqq20keLKtMWxmNTfSH8cXNSWJhp/TmlLZeIofaRDhonNMtqVgOOFXMtAHinqKQNl498V+JF7u1s1RxK1Iw0iZ3UZmC9yw5TnepSG+Tbuk8p5s9dxTZSFMp1rZm4AB7xLrYEVPMSpWMJPKPE05XCHgFxK1Hqu5PwdF3d1hNyZkF5+OpsFCXEkqHPjJ2PStGkvJtVbD7604ZuWiZIbdelyw2tSFoekOOJz7UnmH3Gnc0zpvVml+zLbpPDa2WpvUqZHK25ObaSw02XFBalZSlPT2ClDrvhLq7UF1kTIFjXJYW+pZS6ttCgnwOFHw8gc1u0cNdRX3gXY9LKh+h3xyap1UZ5xSMIStSlA5JP2R0P7Kx2bps2UUmhpZ8btBytIqk6q4laO0spYU2i8WQs5j5GxIbBJwRuKRs3QUoriSda9pqfrmItCXGGLdHPM4v8VIUpQIyQPaPZUibZwDZ0vIbNxuWn7MotlPoz/Kkgnry85Gc7eG2NutJSNwi4EWDUD1wuOrWbnPQ6XTFOSlCzse7CE+4Y8sVOLDjpudmk5W1o3JP9kiKqH2etJMredkKSJWXJD63lq/fTx3WtSlH5n2bYopR8DHtPv8LLIvSwWLEe/wDR+dJSf4dzn2IBHr83hRXO6vYxIRfS+aDn67c4SMW2C7PltC7hKG4zrwHN6F15Nh025j7vGoq9mHhzxf4Naqdu9l4f3Zbkhrldcmrbjw3WwrOFL5iQPaBnrXT7tX8YLVwqn6NburQW3chMAWtAUhIR3Gc58+8FNXZ9dcMNa9xJYEKG+hxDjT0BQZKVpUCMcvq9R4isnkcXSNItrciPxN7PfHziZfbdd9UxLfZGG8sC5tXkSByqUVDmbQMqwNunhXvoz6PTVbWp273E4l2VcuMrmam22I6l1DmDkJ70AZwcZO3Wn344cZeJnDfU1uGhtTWKVZbokhab1A5/Q3B09dKx3iVBKiRjbCidsUz164v8TtYP839VnhfZorRUt2TpgojSgRkn8EtRK1HB2xk1dOclaM+4xSNdi/Vc26piap4ja0RHecMh1UdDXcKH4w71s+q4dsADzp2uHfZxgcIdO6ghWDV6bubnKTKV+6aUErYAbKO7CyrmOeuTjeow2rWUjWd8bt+o+Mmvro7LbDkOPCtkmI64DuCC2jCcjpk1vbP2fNNLv6lap0jxO1Db3UkiReWFPNLV1GSlfOM+ZG1QoZE7sl5G1wI3tM8JrC3qCXfb/reFa5U8tsuRIUxqU2hA2yk53IxnB6VC+6adiMOPmAh+ZGaUrMkJJTypWoBRwMAEBJz03roqxwDudhhS5ejuz/Z4zb3qR1akvHedT19HKfjgqFYeouybxW1voC86dhOaL07b7l3Lj0dUBTMpK21cyktONFSQ2rbIVudwcVr23yT3XKKT8HNpySEOhTCUtlO3MlO/31RoykArQVZ80neugOmPooHJFlEjUWt3I1yyMxYUDvGyP8ISMfKkl2kvo+Twv0REvuiX7re7i2oImWvuku5Rvl1ChhWxKcpxsATnwqriwmjK+jhnvzEcSw6E5at7aU+qAd0vdfPpXRSCrLlkB2HKrr+Ua58fRrWuY07xPamx1MOMsssuIdThSFhD4KVeO3lXQOIoByyjySo5/OVW+LZGed+SK9lbtT/E7jX+7KVGTpMuwFDv1BKW3QVZK/IE8uPbipBafTCFnj+gPd/ACQI7gGOZGPVNRlsV30dpPibxil6p4haVgNXScyhFjvUhXetlnn5lFsJP2uZJTjxGaWVt7Y/Be0W2JDd1i4+6wo959W2p95taAT6iVYGPD1j8q41j9bZqp3FD9JBwSNvZVwzg82Tg+NMZxB7bGg+G1wtHfaZvlwi3WMJLD6lMoabBJASrnUk82AFYHgoUaI7QeuuM8h+XoPhTDuFqjqwJs67LYbbXjOAQkoUrGDgmuhYmyjlQ+YBWojBOPEVewttLqUE4JyQME5HjTSxv+EY/Pc9K/cZpyO5nHeMCWUD3oczn24rDuOg+Lt2hPR5vGf6lPMpZdsMIJK8p2QoOJGADvkZPWtFhZnrH8ioBjl1DD77fiI7Klke3FavUWprIzZ5iTcoTJU0tKxInMsrQSMYKVKz4/dXJTi5q3iJo/iHfNN3rXd3mzrbI9HekRbnIQ06eVKsgBQ6hQ2xTcymXnf65T3g53n/KHl8zhOfEnJ+dZJRexomyXsPhrw00L6ZMncUtJM3JhBJtTripTy1DcBCkDAVtgEVpW+IvBXXujEta11JqiDcEyXHE2uLCclM4wAlfeKIHMSVDzAx51FJM9gr5EyW+UDbJB+eKUlm05cr6oCHb5UpAweZtlSwd/MAitVVUV3JlaA7YegbSxZtHad0nqOervW4UaTIlMtoWVr5QShOVA5VmsHVfbXuFh1DeLBcNC2u1rhvLbYnXSW+VrSCeVZAATuMGmR0X2feIl5eNwtOi77IS28VokRoywpBSv7QOxBB6Gnhidl3iBxNgNxb1oF930ZBbEq4hUaQQSScuk7nPiQa0UYimx5+H8XjlxJ0e3eHtQaVsFplgLhJdtBW4tvwWCkk4PgT161mM8LNdgqF440XlaOvokCO0I/twkpBA+NOHw30BqjTWjLZp1+Gu2JhMpbL0h8PhR6nBRkhOdgKT1xk25rXv7lLxqhiNdHSkJZip5lJKk5SFAkY5vxc9d61Wi9yFiyT2ghiuNPCwweH16bi6xvEiV3RLj70lQSpPMM+rzYT/AL5qC+oeE9ztMtwIdRJ3zzKV1zvnm8fbjpXSJ/8AcVq3iddOFk+bcbnNU0tDzzf4ANqSAtTatlAKG252zTS8O+FunuL8PV9mtUKZGucBPeR5b7ue4cC1ILKzj10nAV0B+FcWa3K4GqrHpWTyQjs1jceZcUe5iI70Ml+SvlSFg5KQfDpmsE3eahRSpKzg+I3+OK3evLNdtE67ulrvNtdgTIz60riPJKTvsFe0HGQa9GLOoQ2krTlwIHModc1Ru0idNukTF+jfuKJtj4ieqEOJkW3JPVWVuD7qmM1lU6QQP7m1v8DUK/o/1rt51uwUFtLrtsOCMZ/fGP11NKG4PS5W3ggAD3Vd7QM/vRlNNDKjnx8KyXEcrJIrySe6SouYSOuSMAfHyqkicw3DLynUd14rSrmT91YpM2k0eLZ5iQQc+ym/4g3BqPrHhyw4lS1PXlaW29lIJDTp9ZJ2I9h9lOFBW3PZdfjOB1psestPQUj77oC6a81Toi9QX24sKw3R6ZIYlNrDr6ShaAlsAbH1s5O2K1xppmba2JX8LrpDvWlEoiRozEhpHK8ww0GkuEdDsOh6ZphNC9nXia5wI4r6S1ZqJCL5qK4OvWp9UpT5iN82QoqB25sDYdB1FK7Q0+4aKkrmdy48VIKPRkoWnmJ8cqwKVFw4uS0tDu48eLKP2jKfQnbyyM1tuQ88Y+lMaDUPY2vGruAOj9Bq1s/AuVodXKlvR2itl5ayoqSkEZATn1fAHJ6VJLRWm4OidIWiwW+OhiLbIjUZtrAbB5UgEjPiTkn2k00184zrQtsualtcRI2UhpZeIPvGPlSamccLK7LW85ql1xCRhSWeVkE+wLzmr71ucbnDuPLzJkklyGlDdTSSeqVKJI+VaqZdbc2FKcuTTaE/aHqkfMnaox3LjRAgtuS2LRqC5MrBDbobfKFHzCk+qfnWI3rzV71gNztvC27uR3iQ076G2So+Zyoqx7cVSi6zfBI2TrPTqEFxuY5KWDgoYUVqPwArAd11CjKQYFmcWHN1F1Ibx7+c1HsnjrqO2NuQdPwLUc5LcychC8fkq5flXungpxWvMqNJuWvLfCZcSO/iwmFlbXsBUkpV86UQss3wh8P6o0yLLJaiwIjfjl3lJHmeQVpZvG1MEPuyb/AiN7/YYC8ezmKv1UgrX2W4DE1167a11Fe2nRuyh0QsHx3QpWflW4sPZl4a2Uvh2wLvaXDzA3iSt9ST5gp5D86X8E1kfGxqr12n9PQI6g9q2S/3h3Qw6hKR16cgBHzpMS+P0KSlpi2adu1xDp9Vx1l5bSj5+vsc0+Fs0BpezwxEiactSYw+y2uG26B8VpJrftqMeMiO0otR0fZYb2QkeQSNhSyO1J8sYGHqbipdJTLELhy9a21AFuZMAjsEeB59wK2LOkeMF4uT6Z0uy2ABPqSO/wDS2lfBrBHyp7mYr605SytXuSSD7qs5gMjOT0NLJWJDQRuCWp7mkqu3EGREllQ/CWiGktn4O749tQU+kYii26e0fCDi5AZuExsvLHrLKcJyfaa6mtnKhv1Irl59JF/YGmx53C4Ee/vBVJukbQgtaSIXaelwme6bmI75Hecy2icBSfKlYu5W1DSzCtsdKEvBtCCkE4z9rPl1pvm4wdTkq5RvivVUVcdJ5HSEn+KTuK8qeFTd2enjzPGkmjYOKC5jygnkSpRIHkMml/wBQDxy4fD/AOtxN/8AGimxauEpBJ5u8AO4UmnQ7NDr1x7QPD9hxtKQbuwtOBjorP6q1UWmjOc04Sr4J269IL+oFHqXY6cnz9Inn9VOtYmdNp0dpWNq9MU6a+rkpnpmglgskk4UBvjOKabiSootl4lDoZzKMn8u4Kpfa3tbl64PxYDDS3nnbPGSltuWqKSSQr+GSlRRjGcgHpjFelV7M8bdxh/yLWPx84NaLsrzdo0q6x6G0VxlCwIhMPhI2DcpY5dx0JNMNqb6WVU6ahvSPC6ZNQkFLirvPwQroOUsggj20kE8ENR2nT6ZbqNOKD61Jhy5kSTNcZdzhOXVOBB33J7s422rSae4LXiy2eDGjLuN2cedcQ8uDZgNlKO6lHAGdzzDAAwceFVlgg46V/1Hpxxzl4N5Yu3Nxx4jT5zD1st2nYQQXWEiKrvGxucB0nIIwTkjHxp2eKeqtU33sT6du03Ub0u+SbkoOXKRKKHVIClDALIBUQNuUYJ+dIsdnPWTkVcu36Su09KVkkr7siSTkgobcUnlSCV4ClA53z0qUvDXQtzc4F2DTlwgmHcO+cLrFxbIKDkkEpK1/wBI+YPSq48MMO0V/wDf9j1QkiCVr4eah1vbLLDVPvV7koTzpkMWSS1IdypeFKemKLYAGwx4JFP3pnhdc9I6BsKdQuOG4NrcaeMxxpTigXV92VKQQgnkKM4Ph51Ji08N59kjsonXmNbmW0hCHG08gUMjGe8wPPfNY151DwvsUuLF1Fra1tzjnkbkT0AuHGDsnP3V1ym2kn4M1CMW5eWO12eIyIfB3T7LaudCPSAD/wBYc9p/TRW64VSbHL0FbXdNuRnbKpT3cLhnLSvwywsp/O5s+3NFcL5Kkbu37xJRoCZoJqZpu16gtE5i6qmKuSuUx0tiKeZtWDuQpQx4nFR70sxwrv8AcIDUOyXXT8+4zEQvqZMltAYXyc6shKVHISFHfbOE5zTj/SpevK4VNndKhdgR5/2HVOCugbZdtB8Pr5JQ64sW+E2WkurQhSwEKS6oJIyofZz4p2ORtVoU3TRu9saYrH+zDw7uDSkX3TouzoSpDMu4z3UrbSQQQnkUBuCc58yOlbrS/B7QGjLY3Dt2mNPx2o5PdyW7chb6P8bjmPzqIvG76Se5cMuJesdH2jh1bVyLJcpFuFyk3BxxL3drKectcgCc4zy823nTE6k+k9423yJ6PbnbFpcgkpfs1t5XB7+8WsH5VdTilSMNDe51iaholRw36LLmMA5QpllJSD59Nqo6pDZMd5DJUOglXBCVpHtSVCuJGse2Bxs10WTd+Jd8JazyqgviEfj3ARn401151DdNTTjMvNzmXWUrrInSFvOH3qUSadxFdJ3N1Rx44aaHdkRbzxB0nbZTSfwkZyan0j4JBOTTY3f6QXgPae/bOvJs9TQ2jxLQ8Qs+SXAnlrj3AWpDjgT1UkgAfdWItBQojBGDjfbFUWZs0eNJJnUC8fSpcMmmpCIGkdVz3RkNpmOsBhfkThfMB/vin+4aa3Z4ycJNFa2NoRZVXxp+QYDUhTqWuR5xsDmOCr+D5um2ceFcQANx99dl+yKO87JnB0DqYEzI88S5FWUm3RFJRYy3ZLkcmue0G90WLg3v/i5FTDZADlnPj3ROfzlVDfsrADU/aGVj/wBpMgEe1mT+ypkAgfVWOvcHf4qrRKkYZfFnITtFQ7fN7TPEFueh95r0t1xKYywlfMnbGTtjGTTbXaLbIYbRb40pgHDhXKWFd6k9Ckp91L7tK3IN9pHWrkdQaeZuUlK3VKBSNyB4bUirdDvmpXnLcCLk82nnW0yAVN4zvsMAb4PwqFVUXjdKhUwtXp1RaPqrUwevDYabYiPOvqS5GCT/AHPqNxtuM7danx2EZIsXDSRp+y+lTHJctUpuK4n1WEfYGV9MqIzXO36nbtPcpky22JKlFJjKUCr39d6nN2KbzDh+ks210GVHt7D0h9s5wtTysNnOQCOuMV0LaJCtypEw5mhtcSnSl63swYytzJekJ5RvjOASaSVn0W5qy4XiND1lZpqLSsN3AW51TjsVXktJA+fvqRWnbzG4iaOn2/0wNT34q4zquXCklSFJC0jPUZzkeNNV2beyu5wA0tqS3XvUDuoJN1R6Ih9rvPwEUJUnuwVeKiorJxsemapHLI3WPG09XPgi1C7HnCTjnr7XF+ka1uuoXoKVSZaIkf0JshKSkLaewsOoyjl5h4ivHscdnPgbxilXRL/Du7ToUeI1IQ/erv6VH5lYHIe67tSV7kpB6pCicEYqXHB/sraP4KaR1JYYKpF1t19wmSZy0ApZShSEtpPUAA7nxO9KXhDwl0fwLs0y06XWmPDmvekOiTJK1lzGMjI61GlHLmcnlXadRNbpnspcItIMdzbeHVhDPUJkwG3yPisKP30uLbpK1aeiGLarZGtkcjHcQ2EtNn81IArKm6zs8JxSHbmylY/uXLhZ929a9/XtqQgBCn5pWfsoAUR8BvWbgbazJ9CTFCglsNp2OOgzWLKYShsqUQE+/atXK1wwk8rNkekE7qDgJx7cKrWv8RpiXEtRmIMQYG63UIUPYUjNSojuG0XEU8jLLS5AP96STTY3LsxWi68X4PEr0CcdRRkpTzKkpbaPK2UIUpCsEkJJAINK6466uwkIDt2jMIXsEISpzmPwA3rTXbUj1umc9wuc8uKHqpDYTkewGp0kLNXDKI7Pmn4erX9VtQbXB1G80pl2Yt0pWtKsBXNy5BJxuevtr1s/DbRmj5M24MzYcJ6WvMsw4wJdUPNWR+itIvUVtZQt5pC5rSzlR9LypP5SE9KxbTf3r4y+5p+0tTmEHC3o7JcKD7996tW1Mo53ToZ/tq9l6ycd7Rp2VoxyNC1TBl5lXSaFFS4fIQG0hAwo85B339vhTW2v6OqS0zFVcNWvzn1YLrLVuEdKR4gLKtz8KljFuWtLy49Di22e2pvOBJj+joPuWoJH31eNAa5vDC1PSY8N3oGp75cT80BVV0RI1zbtDe8NOzDprg7KmOWyRKxOSx331nNQcKbXzpKOVPmB191LIWS0xLm/JkX/APezoAVGBK2vHfYA/fW2j8ErpMhk3DUvoknPrNRo5daP5ylJI+VZjPZ90+QyuZOuUiQkgqSh1CGXPykFJP8AnVNRSorpm9xHs3bQ1i79v0mQ60skltLvOn5KKj8K8I2v7Bb4D5s1mbdjknnLLwTv7Wxy5p0WuCuh2pTMlvT0dDzXRQedIPvSVlJ+VKW22G1WR5TtstkK2uq+0uFGQyVe/lAzS4rwNEnyxjYuvrlfLc6dM2NFzdZHrtw4K1rSfeAoCshNv4oXyLHlNxHIqD6iorqmmFt79fWWlX+bT8E85JWSo+ajmgZUCBnpjA6+yp1fCK9lPljJ3Lgvqq6NsOr1Ehtah+GbcluK5R4j+B3P51bSB2frY0+FXC5uy2uUZSyhxlYP5RdWD/Np32rfKeHOiOog/jBJ/wBzWHzA7ghQz1G4qHJmixQG/tnArR1tLgfgG7Mr37q4Bo8vtCm0IV8c0o29LWe3xYsBq3MGDzKxFkJ79vHKdsOc331vCTgjO3lWO8MraPiFH9Bqm5ooRjwi6A23bIXocNtESIOkaOkIaH5g2+6rum/l4mrQcZoB3336Y8KquSaPdmK89y8ralc32fCrZMR+C+G5DSmlqSFhLg6p6Z+6o68brL2iL9rptnhprlWktLoQEyUpaYUt1RA9ZPeJOfHooe6nD4F6F1Jw+0Oq26t1NJ1benZTkp66S1K51hW4TgqISB0wnb2ZzU2Re9DhnJ36UABI2AAoV0x0q3apJKg5JpOcQbrfbLpC4TtMM9/fmEc8FpTXeIU7g8oWkdU+dKE9TVMDHTNCGRVt7fa71jqqyzr1rq3WWw96hVwtVjipi8zX4yR3iFHPhkHpnxqUkYBDCWySrkASCScnA9u9epTygnr09tWqxv0oQj1axzD2GuYH0jY/eGm8nb0+44/yqa6dtH1hnGMiuXf0j75bj6TQAVqXOuZz4YDqP21nk9pfG6yRf8kJSnlYJPQ5H6Kv79XchIGMVRvJhqJVjGdiPdnevWXGSzCiLSVczqSVJPhg4Fcf4Nm/J4JOUrJ8BTr9kpzvu0hw+QPC5IPySqmlySlSQdj1p2uyC0D2meHwOcG4fobWatFblJzai6Jy8Xrg0jRF3i9wtLjd2ZeMrl9UpKZ6e7zn7QKScY6Eb+FPjp2zw7qzpaBcHFNQHYEFLyw4EYT3RV9o9OgqIvHWaUcTbaw0t8F6LOL6UlQZKEmR3fRWFK5lK6jbwO5qUlwbizdHwmp1rZvbCrTbEu25/JbkDkB5TjfGwPwruW7PNfEL/IuZvE/gfohPoT+o7RNmRSW1QYzqpktJPUFlGdz44G9Ui9pC1y7n6PozhxqnUUdY9ebBtyILaM/xg8UKI26gGsbS9gmWGDHnWZjSsXnGWkHSnO9DHklSXvWP5WK24umrby76PK1pdULGSmPbGIttbP5YKXF/JQpb5o6nlrajGXqXtAakS6m28ObDpOMo8zFzvV0VIUE+BW0lIT8Aukne7FxEktuP6944WLTrDn4P0PSqUNNqUcj8fmWFHxwr3U4qOFb+oLiJgsj06Ty5W5NmTZ0d09M8rrndD4DFKewcEr5b4KY0NEeyxVn8JEioZiNAewMpP+/jUX8ka5eEMMzwE0NOiMRL7L1nrhKsOFy4uSBBc64I7w92PHxrf6e0forSrTqLPw9sNsmsnkaNwdbeWrwBT3CXCnPwp/ovAKGp0rmzEPHGMd2pxQ/OWo/opS23hLYLfHQypL8lKTkc7nJ/qwnaquSFTZ7cJ31v8PrStxhmO4Q4FNR21NtpIdWNkqAPzAz18aKU9vt8e2RG4sVpLLDeeVCfDJJP3k0VmzVcbkEPpS0ZmcKleI+tcf8A2lKTgEk/1EtBnphiGP8ARppPfSkfw/C043H1puf+qUpeAJzwN0L59zD6/wCDFXx8s3mv6UWckO1k6U9qHi2k+OpZ/T/DKpolb+3zp3e1qnHak4s58dSz/wDXKppFp5Tj9dczqzdK4I8/A1QHbBqp2qwDBG+1XRyNb0ezaijJScEVXvSRjOfHfehtpSwcDavVmHzpyfHPSq7I2jGUqR5hSCMEDPmK7I9kBbaeyfwdLq0tI9CmDmWrAyZckAfGuPLduebUCkJdH8XxNdb+zglbvY74StNSURXFwpAC1src6T3iQEpGQrAOFdAd9+lWxu3sWlBqO43/AGedIXbSl844vXKG9EauN0YXGW6gpS6EtS0rIPjg1K0rwm14O5ik7e9XSmSd1rAlPyrfBuj0iIqW2FCU04kFf4RD3KVJHIOYkHJJJOQQMCpCojsJhMNvd880kcjTjUYAJGdgXDuOvWu1KkceVW6RyL4w9n7idrntGa0+otDXeem4XiQqI8qGtLLyO8OFJcUAkp265xSt0F2EOOMW/wDdTrZbdLuODu1uzZzf2SdxlvmGR5fOurDdumS1tQBapLxSMtKcklTY92NvvrymRlWp8MXOVY7GrHquTJCEFX841RLcqlKqOd9v+jKvF7uLiNTawt8Jw9Hba0uUV/DCR99SD7NHYwtvACZfHW75dbzJuDCGCr0ZLbQCVlQwCcpO/jmpHt+jvTo8N3UD6ku/YXb7U+4yv3SG0lA+NZblmZYuBiuWG/XNODyypkmOmKT7VIcK0/zKvYjGSdmt0ut7R65qWC3HckICFGTJTkAHI2AxWVO1fLdjKakXhtpSjgKjtKVz/M4rYWqyyWWZbS9O2W3LIwy+5LduSQf5SFIaPyVXrBtGokwnGJGo2bcc5QrT9sajjHtD3fH5Gostob5ZpCm5TYqW1M3mYnOUKYi4HzAzivKfbno5aVdI8WCpX2ZNzuSBzfmlQPhW+l6MZvEYtXa83u5pBzk3R6OM/ksqQn4YxV7WhNNMhopsFuW40cofdjIW7nz5yMk+81FhY/yIaJqS0y71ItkS/Wt6aynmLFljrkvH4cuD86qzeZt5L7cKz6qmSmtu6kxRagr8lxz1VCnUwClIwCB02G1VCjjbfxqbGhDZIsWoLhbFdzpmJGndQm+3BTmT5c7Bxn4V7M6B1G/AT394t1rkf3lq3IkoR+S6rlXTjBHUAZ+FUxhWD18s01MaEIBfCn6ybj/WWp71KW0cqYQ6j0dfvQtKyPgqs/8AqV6UE5uY3bFoeb2GJj5Qr3o5+U/Kld+wHerOg6mq2y1JeDX2zT1osbzj1stMG2uubrXDjIaKz5nlAyfaa2JJOTk5PU1aT6vtqpOwoC0+sMHf31QNEjzztv0NXHod6j3x5Rx9uep40DhLqSLYLWGiuW5LjIWpbhIxyKW2sYwDnpg4pSb3Db8EhVwH46CtaChI/GxsN+mTWOFYT+seNRd4O8BeLdu4jN6m4hcSrxqSMlCV/VDz624iHQsKDgbS6UKwAQByjcg+FSiOQMYxUuvAi/AZz1+FU89/CqjYjfYVb1znrUFivh1zSR4pJ1K9oa4taQlqg6iWnlgyQkK7p3CuVZBBGAcZyD7qVgOMg9KsJHQfooV0kK0dmztF8QH4UzWvGu6R5LTiFvw7csx2HcEFSSplSMg4xunxqZdsiJt9tjRUY5WWko9UkjYeZ617nr1+NAOE03CVBmrFjds/yv1VdVFdE+w0BaN8nPjVfAjPWqDxqmTiq8ArgGj7J8hirQceNBOasCuTmj3UA1QbZoQVztVtVq0jAzQii0qGfZVOqSSPjVCOuKoQEg5oQejacjPlXL/6ROPIfY0eGnMJMm58wPj+Fbrp02SlJOd8E1za7cmh9Xa/d0WzpXTl1vpS/cw8u3RHHUtEvN8vOUjCM77nHjWWRNx2JjJRmr/JA5MhSWgyvZoKJJSN/wDfarwGHQAh47n+6DFSO0v2AeM+oH0onadiWRh1IWJdwnMqaSP5QaK1J/m051p+jPYg2+LK1dxLt9sWtf4Vq3xS+1yg9O8KklPvKK5lF/Bo5RshKzCcdUQgpUM42UMfOnj7IUIjtQcPW1Jw4mcsn24YcP6qmTpbsO8DLJJ7oQNRazfXgNmS84Yyj7HGEoCfiafvh52cGNMSYadIcG4Fjkwjlu5XcNqfSDsS1I9ZZ2zso+NXWOSaZRyjTQkdCdnqN2grrriE+/6FNhRWzbZywShh5bshLmUjrlJT8hTh2TQGrL1A1hZ9KzbU3q7SLMSChM4OLZcfbZ5knlASSFpOPtDBI3pd9kXTT8C2ag1imVGmWe7J5Yvoqytai044F52A67DBPStH2WNY3a78auIsm4acvFvg6kDd2hSZsJbSGuUlDjC1lIBUDgjGdvGt75aONQTUbIZ/8JbiTJ17eLXcwlSNO3D0SbFQ1yx3yjlW4kOqJPOACAnGMb5rqzoV603zTVqvdttzEJqfFbkIShpKVJCkg4JA9tR34ydgjT3FTX72pYOo5mm2pzwfuVuiRm1NyXM+u5zbKClY6knB6DwqTWnLLG05Y4FqhpUmJCYQw0FnJ5UjAyfE7VlqlKTb4PVnHpo4MfbXr31f+v8AwbHHh4VQjAq6ipOcoB51UAAbbVWqUAUVWigIEfSlp5n+Fo//AJT/APEpUcA0/wDoM0PjwZhY/wAmKTP0o/8AZXCzfH9tP/w6U3AJXNwO0Pv0ah9PyBV8b3Z1T/sx/wC+Tkx2sGQvtQ8V8j/3km/61VNS6wEtpPKOoGcU73auTntPcVSDnOo5v+tNNM+tSWhk+Ncbe52Y16Ea+SjlI6DbyrwAycH4VlTVHmQD0I3FeDaQVJ5tq3XBwz99F6NgQVdBVjTim1HlWdqy092EHdNeaYRKSpQUBy8wxg8wz1qE15LVLZxMqHc+5OHUcxP4ya7E9j4/+qvwj2zmBK2PT+y3640trbDgBTkZFdk+x+c9lThHj/4GX/2t+tMaWrYrOcnjqQpdEcDtJORH7wmE/GuU6ZJcfdalOd2tQkLwoNE8gVhI35c9QfEU/EnTjM1lkSp1wWtggpXGmLjJV7FJaKUqHsIqM/ZGvF2u54nNXGdJmRYerZMeEzIWVJYa5UKKWweieZROPMmpXhW3uFbvcyfijUOaWsjk5qcu0QjMa+xI7hIcH53Wto4EyFAvJS6R0LiQrHuzQf8AfNHUZ8POiBUEoQUJwE+Q2HyqwjPToPvpnePPar012bGWXNSWmfcjMIbhtwUg87nXlUSRj2UybP0h/EHXVxhW3RPAuVb3nX0JVN1Et0xgyThTmQlobDJ+0fjVqKWTQ6nyPX21Q9P11iWlbi7dGW6vvHVoClqAwMkZOPZ5Vlk7YqpYoRnrk+2qAVXO1UoSAFanVF1esOn51wjpSt+O33iEK6LIOw8cZ6Zrak1YtIWClQBSfAjahBBS7cf+1xrCe9EsvDuz2CKt0obuDDSXsJycFfM65j4J+FSh4BQ9ewtBN/1SrwL7qZ13nektMoaaCSBhCEJCQEg5HQEnfFOKGENqPKhKSfFIxVxznqT41N2USorznfO599WnpVTvVp6VBIDfm9h2+VV615oUVKcHkofoq8nyoC1W+as3HTp1q45xVoOc+yhYp448fKjNVGyjsTVucbUBU7VQjxoz7DVqtt8g7UJAgDOdzirc4FG4JzQCAMdaAtI9hqg6+yq7keyqDbY/OpoFB4+w1TGUn2VcSB51ROMq8Nv11BBYfZVm4r12zgdatUU493tqCKLAck1Q16Mxnnz+BbW9nwQkn9VbBjSl4l/YhOJHmvCR99Log1ecChLgBO3xpTxuG9zcOXnWGB7yoj4YraxuGDA/sic4s+IbSE/tqNSAg+bGT4e3pVhUpacJGT7PGnViaDs0YAmOp5Q8XFk/d0ppe0DwL1fxAuthk6J1WvSsaE26iXEjvLZEkqxyqJSN+X2+dVcxVmbCtc6bkx4zr25HMlBx86SfFPiBp7grFt0nXFyFhanqWiMVsuPFwpTzKGG0qIwPPHspyezvwquHB/QUi03a7vXi5S7jIuLz7zxd7suEfg0qO5SAPvNRj7ZnAbjnxi41w59hZgTuH1ogIEOCtaA45IdBS8pSSQSU7EZOB4VXW6IaJH6askHUuh42qY1wL9tlwTOYCGykrbKCpO53GRg7jNM12e9CXLjFw5g6xsupzbLRdy5IZTG9cKytQWlxK0A7EYyCOmfGruAvBPjnYOAN80VM1ybHNUY6bLcLpBRJehsEKEiOpAWcp+yEqC8jJIAp2ezB2eJXZv0vdNPDV07UtpfkJfhRJbYSm37HvENnJJSpRzufDzJNRrkymlOmFq7MGnoy+8uE6bPUofhmHHVKYX5+osqA+FLCxcFdF6fYcYiWKOWVnmU26CtBP5J2+6lxyjOfGq4pbLUjEg2qHbGe6hxGYrQ/EZQEp+QrQ8RtMXPWOkpVptF+e03LeW2TOjo5l8gWCtHUEBYBSSCCATgg70qqoQKqSNTwC4Gr4D2e52KJqOZerC7JVIgxJqBzQ+YkrSFeIJOffv406nKOmBVQkJ6VXFSQklsi0AHNXAY8KAKMUJorRRRQkKKKKAKKKKAgd9KKw4pXDF4Nkstm5pWvGySfRMZPTfBpRcAwBwQ0QM4AZiYx+QK0v0oc/ubdw5iF5SQ87Pc7rl9VXKI45ifAjnO3jzHyrdcAiFcD9E4GfwMQYPnyirY/czpl/aicn+1c24jtOcUycb6jm4Ps704pqZLiy10SfOnb7WDiD2meKGD/AO8MzbH/ADhpo5LiENHffm6CuPydsH6EzDuKRzt7/i9B76pDayC549ACNqpPcy4hWPxfH316QlL7kJ5cjO2TW32nKlqyhIQG1eBGarFlBkqSFlI8R51ZJWtR/FA9lYgWckE7+dFG0RKThK0blbqX0pK9iCOiRXYDsfn/ANVfhIMbegyv+1yK42R3VIcGCQMjauyPY/WT2V+Eu+f3jKxj/pcitMaqSIySU8bdB2OMiNxRWd/+PE1G/wDgmP21LMdPZUU+x2Em2cSSNs68ndfPuY37alZ4YroOcD7Kodqpk0E7UJNRddJ2S/PpcudpiXBaccpkspXgjoRkbH21sG4bDbCGUtIDSBhLYSOVPuFeu9V6ihFBgAADbHTFFHSqZNCStB2qhNU5j5UAEk0VTPsq0nehALO9W9M0E1QHrQqBO1W53oJzVKA82VZkSh4BSf6NevvrFirzMn+xTY/zKyMnGaAp4datBCQd6FE+FWqPq48T7KFyucg4NU9YfKvNKuU4yDmqgqfWQ2FLPTCEk0BcVKx1qwHqSd/dXjdlmw2aXdrkRBtsVHO/MknkbaTnGSTWg4ka+tPCW32mZqBUgN3Tm9EbgsF9x0JAJISCNvWT86htICjKtsZqgWR47VudA2GPrnSdr1AiQ/HjXBlMhppbXK4EnpzA+NLCLoG1MLKltrfOMYcUcVXUiLG1S4M7kez216txZD8gNNsOKcVjlQEnJp24dmgQk4YiNN+5ArMDSArmCEhXnjeo1kWNdG0XeZPWOln/AAisftraxOHMg7vzG0DGCltGT86XvKMVXFU1NixKxeHtub/hnHn/AHq5R91Z7GjbQw+l5EUcyegUokfKt2EgUYpZBa2yhoYQhKfyRir6oBVagFMUYqtFAFWqRzdauooC3kGKOQYq6igLQgAYqoGM71WioAUUUVICiiigCiiigCiiigCiiigCiiigCiiigIDfSmrLcvhQtJKVIVc1pUOqSDDII+NKzgXPeuXBzSEp88zziIqlFKQATyDfApH/AEqRxI4VeX9dP0w6VHZ9Xngfos5P8FG2/Nq+PZs6H/aRyn7WgCe03xO5dwb/ACz/AKRVNHJUQhPTPNTqdrUPJ7UHFBIRsL/KI9oKzTWKjKSspWCkpPQ1xvZnZjdwSMKf6ziM/wAX9dekROGTkA79a8pw5Vo3CsDBxVrL6G2VBROa1rY5tSjNtmQsBQUOX41hBO5A61mQuZ/IJ2zv7KzWbYxJb5hsrGTio1aSzxvIrRq287ZAwT1zXY7sdqx2WOE2Dv6FK8P/AJt+uQBt6Wlgcqk75x51177IC8dljhOBkH0OV/2t+tMck5FJY3CDTNh2OE81m4hqO5OvZ/8AqItSoCznzqLXY+x9U6/wf/f6cP8AQRalDg83sroRh4L+YeVGfMUY9tUJx51IDOM71UnaqbeNWk0ILwqqZ9n31bnBxVCSB1oLDmwaM7nc1b1GetAOCTnIoRYcyv4xqmdvOhIU4cJQpR/kpJrNYsVyk47uI5g/jKGBUXRBhbkVTNb+Poi4un8Ippke1XN+isl7QL3oxLMxHpGei0Hkx8N6jUgJUkAdd/bVOYDYkUvLZoyIyykzUJffGc8qjyH4VuY9ohRRhqK0gfkCquXwBo7fDkybnc0NRnXFZZIAQQMcngTW6j6Ru8jf0fux494oJpzQkAYAwPZVcbVGpgbJ/Rt7ZnstIjNyIygC5IS+E8m/TlIyaUbHD6CgDvXn3lA5JyE59m1KkpBqoFV1MGpjaVtUZQUiGgqAxzK3NZzENiNkMstt+1KQKyKMVFsEC+1H2mrjrjidqrgjB0o+7abWhs3KYVJX6cpbQcbZ5CRytbklW5y2MbZpZdm+9RO1fotq0cRdKyYOodEtsQVzUSwEzOdsfhUhB9Xm5AeU+YqT1/4baU1TMTLu+nLZcZYx++JEVCnNgR9rGTsSPia2Fh0vZ9LRDFs9si2yOTktxWUthR8zgbn31TTvZJ62Cyw9O2WDa4DXcQobKWGW8k8qEjAGT7qz8UAVWrIgpVaKKkBRRRQBRRRQBRRRQBRRRQBRRRQBRRRQBRRRQBRRRQBRRRQBRRRQBRRRQBRRRQBRRRQBRRRQHMP6ajUFwscjgsmDKcjB83kOcmPWAMDH6TTsdmN5T/Z54fOukrcVFhqKj1JKRTOfTcRnH5PBFSACEKvOd/MwKdzsxFTfZ54egn/ksNIH5oq8Ktmyb0UctO1/OC+07xMAz6l9lD/SGmdckuPkqU58M0+Xavs8ZztMcS3CVqUq9yVEJ3GSs52prxbWWh6sYZ81YAPz6VxvLBOjphhm4rehMAKX5qPSvVqC+9nlQQB57UvdP6B1Fqu4MW+y2GdcZj38HGiQ1uKX+Ttv8Kd7TnYW41apt5lN6Net7SVcq2rvKahOo9vI4QSKnuN8IdiC9zI2s255OfW5R7P9tZLTRYaWVPHI9m3XxNTj039GDqFSo72pdb2e1wncc4hNOPvtq/ikLCUH4Kp09PfRz8JrdETGvV71Bf56FZD0d1MVpweXdpQsf51WUZy8EqeOHDOaDM4NLHfEFJxhRIwK64dkE57LvCfHX0KUQD5elv4/RmlDpDs4cK9CpXJsXDO0ofCA08q4th8qHmQ6VjPtAFLE21+1P2pmNBZi2zmUxGaiR+7YbJBPIgAAZ6nAHnW2PG4uzHLn1qjz4MaCi6AhS24rjjou97duzpWRs4vkQQPIDuhTzjPrVptJ8NdQtWO2SJMVEWQh1RXDU6lS0p7wkKyDjcYOM5333rD4t8SNO8CbNFuetZ5tkWUpaGQ0yqQ64UgEhLaAScDc48K3tHOhS7g4zVAv25Pj5Ux9t7Wum9Tagstt05YL3em7nKjMNzEtJZbCHXUILhSshQCUq5iMZ2NSiToWMiSFh5SmgQS0tOc+e9UU0+CWnHZiKLgzjO/gPE/CvZiLJkkBphxw/wAlBOacuPZoMUYaitJ9pSCfvrLCQkYAwPZUairG5j6XukkZEbux5uHlrYM6DlLI76U2lPjyAk0twkCjAx7KhyZAmY2hIaP4V5173EJFbONpm2RSCiIgqH4y/WP31swkCiotg82ozTP8G2hH5KQK9MVWioBTAHsoxvVaKAoEgUAYGKrRQBRRRQBRRRQBRRRQBRRRQBRRRQBRRRQBRRRQBRRRQBRRRQBRRRQBRRRQBRRRQBRRRQBRRRQBRRRQBRRRQBRRRQBRRRQBRRRQBRRRQHML6atwB3gs30KzeMb+RgU5PZlf5ezvoJSiABGib+Q5ev3VJjtEdmDQ/aasduhavhOKl2pa3rZcY68PQ1rCeYgHKVJVyIylQIPKOh3ppuC2hrbZta3fg88qcHNJQ4kkXRqOhmNKSpAUkNgqUQRkcwOwPTNIUpWy7l6aGwunY84Tak4g3rWV5t9z1HPuklyTKt0mUr0ZC1qySlKEpKR5euaUOnezNwm0XKW/aeG9oaLn2HrgTISn3odUupcQ+HNkYwVtOyleJedVv7wMA/Kt3BsFttf9iQI0Y+bTSUn54qdONb6SHkm9rGCg2a+S4kaNAhvsxWE8jUeBEUhkJ9nNhKR7tq30XhlqSc73rjfo6SnGJUvlx7w0N/iae3kHTqPKq4xVlOuFRTd8sZNHAu7jb023NjOSUJWSffzAj7qzGuDN3AbS7cmFoSoEhK1pyM9PVSKeDFHLTWxRq7fpq1W3Co9ujNLA/hA0nnP53WoldvPj1p7Qk/SdokJn/Wun7nbtWSnY7SkhEBEnunUoX0UtSVKHJ4pyDuRUycVgXHT9su6HUT7fFnIdSELTJZS4FJByAcg5GfCs3ZIluDPF2wcd+HNq1tpj0o2a5hZZ9MZLTgKFlCgUnp6yT7D1G1Qa7Z3Gy76641K4ftWm3W2w2B0Mt3qZIQVPzHWxtuoFtKRnYBSlYyBiui8aGxCYbZjstsMtjCGmkhKUjyAHSsC66Vst+BTc7RBuAJBIlRkOgkdD6wPSoatUyU6dkCfo5ZEnWWu9YxdT2GOmbpluK9b7hGfKmFJdDiQkAbKwEZBO++6QRmuheKxINqh2tgMQ4rMRkdG2GwhI+ArLxSMVFUg23uwqtFFWICiiigCiiigCiiigCiiigCiiigCiiigCiiigCiiigCiiigCiiigCiiigCiiigCiiigCiiigCiiigCiiigCiiigCiiigCiiigCiiigCiiigCiiigCiiigCiiigCiiigCtZH0zZ4l8lXlm0wWbxKQlqRcG4yEyHkJ+ylbgHMoDwBO1FFAbEJA8BV1FFAFFFFAFFFFAFFFFAFFFFAFFFFAFFFFAFFFFAFFFFAFFFFAFFFFAFFFFAFFFFAFFFFAFFFFAFFFFAFFFFAFFFFAFFFFAFFFFAFFFFAFFFFAFFFFAFFFFAFFFFAFFFFAFFFFAFFFFAFFFFAFFFFAFFFFAFFFFAf/Z;" parent="1" vertex="1">
          <mxGeometry x="31" y="237.00000000000006" width="93.38" height="64.84" as="geometry" />
        </mxCell>
      </root>
    </mxGraphModel>
  </diagram>
</mxfile>
